<?xml version="1.0" encoding="UTF-8" standalone="no"?>
<!-- Created with Inkscape (http://www.inkscape.org/) -->

<svg
   width="118.58955mm"
   height="200mm"
   viewBox="0 0 118.58955 200"
   version="1.1"
   id="svg1"
   inkscape:version="1.3 (0e150ed6c4, 2023-07-21)"
   sodipodi:docname="Horten.svg"
   xmlns:inkscape="http://www.inkscape.org/namespaces/inkscape"
   xmlns:sodipodi="http://sodipodi.sourceforge.net/DTD/sodipodi-0.dtd"
   xmlns="http://www.w3.org/2000/svg"
   xmlns:svg="http://www.w3.org/2000/svg">
  <sodipodi:namedview
     id="namedview1"
     pagecolor="#ffffff"
     bordercolor="#666666"
     borderopacity="1.0"
     inkscape:showpageshadow="2"
     inkscape:pageopacity="0.0"
     inkscape:pagecheckerboard="0"
     inkscape:deskcolor="#d1d1d1"
     inkscape:document-units="mm"
     inkscape:zoom="0.73049944"
     inkscape:cx="18.480507"
     inkscape:cy="223.13501"
     inkscape:window-width="1920"
     inkscape:window-height="991"
     inkscape:window-x="-9"
     inkscape:window-y="-9"
     inkscape:window-maximized="1"
     inkscape:current-layer="layer1" />
  <defs
     id="defs1">
    <clipPath
       clipPathUnits="userSpaceOnUse"
       id="clipPath88">
      <path
         d="M 190.598,245.336 H 403.705 V 604.769 H 190.598 Z"
         transform="translate(-191.17011,-526.86401)"
         id="path88" />
    </clipPath>
    <clipPath
       clipPathUnits="userSpaceOnUse"
       id="clipPath90">
      <path
         d="M 190.598,245.336 H 403.705 V 604.769 H 190.598 Z"
         transform="translate(-336.59361,-383.12371)"
         id="path90" />
    </clipPath>
    <clipPath
       clipPathUnits="userSpaceOnUse"
       id="clipPath92">
      <path
         d="M 190.598,245.336 H 403.705 V 604.769 H 190.598 Z"
         transform="translate(-192.82,-382.44321)"
         id="path92" />
    </clipPath>
    <clipPath
       clipPathUnits="userSpaceOnUse"
       id="clipPath94">
      <path
         d="M 190.598,245.336 H 403.704 V 604.737 H 190.598 Z"
         transform="translate(-326.68501,-383.02391)"
         id="path94" />
    </clipPath>
    <clipPath
       clipPathUnits="userSpaceOnUse"
       id="clipPath96">
      <path
         d="M 190.598,245.336 H 403.705 V 604.769 H 190.598 Z"
         transform="translate(-254.23201,-382.50281)"
         id="path96" />
    </clipPath>
    <clipPath
       clipPathUnits="userSpaceOnUse"
       id="clipPath98">
      <path
         d="M 190.598,245.336 H 403.705 V 604.769 H 190.598 Z"
         id="path98" />
    </clipPath>
    <clipPath
       clipPathUnits="userSpaceOnUse"
       id="clipPath100">
      <path
         d="M 190.598,245.336 H 403.705 V 604.769 H 190.598 Z"
         id="path100" />
    </clipPath>
    <clipPath
       clipPathUnits="userSpaceOnUse"
       id="clipPath102">
      <path
         d="M 190.598,245.336 H 403.705 V 604.769 H 190.598 Z"
         id="path102" />
    </clipPath>
    <clipPath
       clipPathUnits="userSpaceOnUse"
       id="clipPath104">
      <path
         d="M 190.598,245.336 H 403.705 V 604.769 H 190.598 Z"
         id="path104" />
    </clipPath>
    <clipPath
       clipPathUnits="userSpaceOnUse"
       id="clipPath106">
      <path
         d="M 190.598,245.336 H 403.705 V 604.769 H 190.598 Z"
         id="path106" />
    </clipPath>
    <clipPath
       clipPathUnits="userSpaceOnUse"
       id="clipPath108">
      <path
         d="M 190.598,245.336 H 403.705 V 604.769 H 190.598 Z"
         transform="translate(-244.90371,-465.36861)"
         id="path108" />
    </clipPath>
    <clipPath
       clipPathUnits="userSpaceOnUse"
       id="clipPath110">
      <path
         d="M 190.598,245.336 H 403.705 V 604.769 H 190.598 Z"
         transform="translate(-224.07931,-460.50951)"
         id="path110" />
    </clipPath>
    <clipPath
       clipPathUnits="userSpaceOnUse"
       id="clipPath112">
      <path
         d="M 190.598,245.336 H 403.705 V 604.769 H 190.598 Z"
         id="path112" />
    </clipPath>
    <clipPath
       clipPathUnits="userSpaceOnUse"
       id="clipPath114">
      <path
         d="M 190.598,245.336 H 403.705 V 604.769 H 190.598 Z"
         id="path114" />
    </clipPath>
    <clipPath
       clipPathUnits="userSpaceOnUse"
       id="clipPath116">
      <path
         d="M 190.598,245.336 H 403.705 V 604.769 H 190.598 Z"
         transform="translate(-243.86241,-450.58981)"
         id="path116" />
    </clipPath>
    <clipPath
       clipPathUnits="userSpaceOnUse"
       id="clipPath118">
      <path
         d="M 190.598,245.336 H 403.705 V 604.769 H 190.598 Z"
         transform="translate(-227.7499,-439.44481)"
         id="path118" />
    </clipPath>
    <clipPath
       clipPathUnits="userSpaceOnUse"
       id="clipPath120">
      <path
         d="M 190.598,245.336 H 403.705 V 604.769 H 190.598 Z"
         transform="translate(-221.87901,-439.62991)"
         id="path120" />
    </clipPath>
    <clipPath
       clipPathUnits="userSpaceOnUse"
       id="clipPath122">
      <path
         d="M 190.598,245.336 H 403.705 V 604.769 H 190.598 Z"
         transform="translate(-219.7009,-439.67301)"
         id="path122" />
    </clipPath>
    <clipPath
       clipPathUnits="userSpaceOnUse"
       id="clipPath124">
      <path
         d="M 190.598,245.336 H 403.705 V 604.769 H 190.598 Z"
         transform="translate(-232.21771,-438.89561)"
         id="path124" />
    </clipPath>
    <clipPath
       clipPathUnits="userSpaceOnUse"
       id="clipPath126">
      <path
         d="M 190.598,245.336 H 403.705 V 604.769 H 190.598 Z"
         transform="translate(-214.0921,-439.35071)"
         id="path126" />
    </clipPath>
    <clipPath
       clipPathUnits="userSpaceOnUse"
       id="clipPath128">
      <path
         d="M 190.598,245.336 H 403.705 V 604.769 H 190.598 Z"
         transform="translate(-209.4031,-438.73091)"
         id="path128" />
    </clipPath>
    <clipPath
       clipPathUnits="userSpaceOnUse"
       id="clipPath130">
      <path
         d="M 190.598,245.336 H 403.705 V 604.769 H 190.598 Z"
         transform="translate(-279.1858,-385.94251)"
         id="path130" />
    </clipPath>
    <clipPath
       clipPathUnits="userSpaceOnUse"
       id="clipPath132">
      <path
         d="M 190.598,245.336 H 403.705 V 604.769 H 190.598 Z"
         transform="translate(-275.40241,-379.48931)"
         id="path132" />
    </clipPath>
    <clipPath
       clipPathUnits="userSpaceOnUse"
       id="clipPath134">
      <path
         d="M 190.598,245.336 H 403.705 V 604.769 H 190.598 Z"
         transform="translate(-258.00261,-385.94251)"
         id="path134" />
    </clipPath>
    <clipPath
       clipPathUnits="userSpaceOnUse"
       id="clipPath136">
      <path
         d="M 190.598,245.336 H 403.705 V 604.769 H 190.598 Z"
         id="path136" />
    </clipPath>
    <clipPath
       clipPathUnits="userSpaceOnUse"
       id="clipPath138">
      <path
         d="M 190.598,245.336 H 403.705 V 604.769 H 190.598 Z"
         transform="translate(-237.31681,-385.94251)"
         id="path138" />
    </clipPath>
    <clipPath
       clipPathUnits="userSpaceOnUse"
       id="clipPath140">
      <path
         d="M 190.598,245.336 H 403.705 V 604.769 H 190.598 Z"
         id="path140" />
    </clipPath>
    <clipPath
       clipPathUnits="userSpaceOnUse"
       id="clipPath142">
      <path
         d="M 190.598,245.336 H 403.705 V 604.769 H 190.598 Z"
         transform="translate(-216.2617,-385.94251)"
         id="path142" />
    </clipPath>
    <clipPath
       clipPathUnits="userSpaceOnUse"
       id="clipPath144">
      <path
         d="M 190.598,245.336 H 403.705 V 604.769 H 190.598 Z"
         id="path144" />
    </clipPath>
    <clipPath
       clipPathUnits="userSpaceOnUse"
       id="clipPath146">
      <path
         d="M 190.598,245.336 H 403.705 V 604.769 H 190.598 Z"
         id="path146" />
    </clipPath>
    <clipPath
       clipPathUnits="userSpaceOnUse"
       id="clipPath148">
      <path
         d="M 190.598,245.336 H 403.705 V 604.769 H 190.598 Z"
         id="path148" />
    </clipPath>
    <clipPath
       clipPathUnits="userSpaceOnUse"
       id="clipPath150">
      <path
         d="M 190.598,245.336 H 403.705 V 604.769 H 190.598 Z"
         transform="translate(-299.76211,-385.94251)"
         id="path150" />
    </clipPath>
    <clipPath
       clipPathUnits="userSpaceOnUse"
       id="clipPath152">
      <path
         d="M 190.598,245.336 H 403.705 V 604.769 H 190.598 Z"
         id="path152" />
    </clipPath>
    <clipPath
       clipPathUnits="userSpaceOnUse"
       id="clipPath154">
      <path
         d="M 190.598,245.336 H 403.705 V 604.769 H 190.598 Z"
         id="path154" />
    </clipPath>
    <clipPath
       clipPathUnits="userSpaceOnUse"
       id="clipPath156">
      <path
         d="M 190.598,245.336 H 403.705 V 604.769 H 190.598 Z"
         transform="translate(-320.47201,-385.94251)"
         id="path156" />
    </clipPath>
    <clipPath
       clipPathUnits="userSpaceOnUse"
       id="clipPath158">
      <path
         d="M 190.598,245.336 H 403.705 V 604.769 H 190.598 Z"
         id="path158" />
    </clipPath>
    <clipPath
       clipPathUnits="userSpaceOnUse"
       id="clipPath160">
      <path
         d="M 190.598,245.336 H 403.705 V 604.769 H 190.598 Z"
         transform="translate(-195.4132,-385.94251)"
         id="path160" />
    </clipPath>
    <clipPath
       clipPathUnits="userSpaceOnUse"
       id="clipPath162">
      <path
         d="M 190.598,245.336 H 403.705 V 604.769 H 190.598 Z"
         transform="translate(-398.50251,-330.70281)"
         id="path162" />
    </clipPath>
    <clipPath
       clipPathUnits="userSpaceOnUse"
       id="clipPath164">
      <path
         d="M 190.598,245.336 H 403.705 V 604.769 H 190.598 Z"
         transform="translate(-266.01691,-341.83211)"
         id="path164" />
    </clipPath>
    <clipPath
       clipPathUnits="userSpaceOnUse"
       id="clipPath166">
      <path
         d="M 190.598,245.336 H 403.704 V 604.737 H 190.598 Z"
         transform="translate(-287.8771,-338.32711)"
         id="path166" />
    </clipPath>
    <clipPath
       clipPathUnits="userSpaceOnUse"
       id="clipPath168">
      <path
         d="M 190.598,245.336 H 403.705 V 604.769 H 190.598 Z"
         transform="translate(-263.59,-339.08321)"
         id="path168" />
    </clipPath>
    <clipPath
       clipPathUnits="userSpaceOnUse"
       id="clipPath170">
      <path
         d="M 190.598,245.336 H 403.705 V 604.769 H 190.598 Z"
         transform="translate(-264.97801,-341.67711)"
         id="path170" />
    </clipPath>
    <clipPath
       clipPathUnits="userSpaceOnUse"
       id="clipPath172">
      <path
         d="M 190.598,245.336 H 403.705 V 604.769 H 190.598 Z"
         transform="translate(-285.9031,-341.12891)"
         id="path172" />
    </clipPath>
    <clipPath
       clipPathUnits="userSpaceOnUse"
       id="clipPath174">
      <path
         d="M 190.598,245.336 H 403.705 V 604.769 H 190.598 Z"
         id="path174" />
    </clipPath>
    <clipPath
       clipPathUnits="userSpaceOnUse"
       id="clipPath176">
      <path
         d="M 190.598,245.336 H 403.705 V 604.769 H 190.598 Z"
         id="path176" />
    </clipPath>
    <clipPath
       clipPathUnits="userSpaceOnUse"
       id="clipPath178">
      <path
         d="M 190.598,245.336 H 403.705 V 604.769 H 190.598 Z"
         transform="translate(-301.08221,-376.29661)"
         id="path178" />
    </clipPath>
    <clipPath
       clipPathUnits="userSpaceOnUse"
       id="clipPath180">
      <path
         d="M 190.598,245.336 H 403.705 V 604.769 H 190.598 Z"
         transform="translate(-295.3177,-371.45461)"
         id="path180" />
    </clipPath>
    <clipPath
       clipPathUnits="userSpaceOnUse"
       id="clipPath182">
      <path
         d="M 190.598,245.336 H 403.705 V 604.769 H 190.598 Z"
         id="path182" />
    </clipPath>
    <clipPath
       clipPathUnits="userSpaceOnUse"
       id="clipPath184">
      <path
         d="M 190.598,245.336 H 403.705 V 604.769 H 190.598 Z"
         transform="translate(-218.16241,-313.46801)"
         id="path184" />
    </clipPath>
    <clipPath
       clipPathUnits="userSpaceOnUse"
       id="clipPath186">
      <path
         d="M 190.598,245.336 H 403.704 V 604.737 H 190.598 Z"
         transform="translate(-379.94061,-289.67721)"
         id="path186" />
    </clipPath>
    <clipPath
       clipPathUnits="userSpaceOnUse"
       id="clipPath188">
      <path
         d="M 190.598,245.336 H 403.705 V 604.769 H 190.598 Z"
         id="path188" />
    </clipPath>
    <clipPath
       clipPathUnits="userSpaceOnUse"
       id="clipPath190">
      <path
         d="M 190.598,245.336 H 403.705 V 604.769 H 190.598 Z"
         transform="translate(-304.60821,-544.92521)"
         id="path190" />
    </clipPath>
    <clipPath
       clipPathUnits="userSpaceOnUse"
       id="clipPath192">
      <path
         d="M 190.598,245.336 H 403.705 V 604.769 H 190.598 Z"
         transform="translate(-298.0522,-540.32782)"
         id="path192" />
    </clipPath>
    <clipPath
       clipPathUnits="userSpaceOnUse"
       id="clipPath194">
      <path
         d="M 190.598,245.336 H 403.705 V 604.769 H 190.598 Z"
         transform="translate(-324.57481,-570.98551)"
         id="path194" />
    </clipPath>
    <clipPath
       clipPathUnits="userSpaceOnUse"
       id="clipPath196">
      <path
         d="M 190.598,245.336 H 403.705 V 604.769 H 190.598 Z"
         transform="translate(-336.20201,-569.25071)"
         id="path196" />
    </clipPath>
    <clipPath
       clipPathUnits="userSpaceOnUse"
       id="clipPath198">
      <path
         d="M 190.598,245.336 H 403.705 V 604.769 H 190.598 Z"
         transform="translate(-347.65561,-566.47381)"
         id="path198" />
    </clipPath>
    <clipPath
       clipPathUnits="userSpaceOnUse"
       id="clipPath200">
      <path
         d="M 190.598,245.336 H 403.705 V 604.769 H 190.598 Z"
         transform="translate(-356.94011,-563.95831)"
         id="path200" />
    </clipPath>
    <clipPath
       clipPathUnits="userSpaceOnUse"
       id="clipPath202">
      <path
         d="M 190.598,245.336 H 403.705 V 604.769 H 190.598 Z"
         transform="translate(-321.13011,-591.61381)"
         id="path202" />
    </clipPath>
    <clipPath
       clipPathUnits="userSpaceOnUse"
       id="clipPath204">
      <path
         d="M 190.598,245.336 H 403.705 V 604.769 H 190.598 Z"
         transform="translate(-271.55841,-570.98551)"
         id="path204" />
    </clipPath>
    <clipPath
       clipPathUnits="userSpaceOnUse"
       id="clipPath206">
      <path
         d="M 190.598,245.336 H 403.705 V 604.769 H 190.598 Z"
         transform="translate(-259.93081,-569.25071)"
         id="path206" />
    </clipPath>
    <clipPath
       clipPathUnits="userSpaceOnUse"
       id="clipPath208">
      <path
         d="M 190.598,245.336 H 403.705 V 604.769 H 190.598 Z"
         transform="translate(-248.4775,-566.47381)"
         id="path208" />
    </clipPath>
    <clipPath
       clipPathUnits="userSpaceOnUse"
       id="clipPath210">
      <path
         d="M 190.598,245.336 H 403.705 V 604.769 H 190.598 Z"
         transform="translate(-239.1928,-563.95831)"
         id="path210" />
    </clipPath>
    <clipPath
       clipPathUnits="userSpaceOnUse"
       id="clipPath212">
      <path
         d="M 190.598,245.336 H 403.704 V 604.737 H 190.598 Z"
         transform="translate(-274.91241,-592.00601)"
         id="path212" />
    </clipPath>
    <clipPath
       clipPathUnits="userSpaceOnUse"
       id="clipPath214">
      <path
         d="M 190.598,245.336 H 403.705 V 604.769 H 190.598 Z"
         transform="translate(-370.92661,-560.32312)"
         id="path214" />
    </clipPath>
    <clipPath
       clipPathUnits="userSpaceOnUse"
       id="clipPath216">
      <path
         d="M 190.598,245.336 H 403.705 V 604.769 H 190.598 Z"
         transform="translate(-320.06271,-534.02221)"
         id="path216" />
    </clipPath>
    <clipPath
       clipPathUnits="userSpaceOnUse"
       id="clipPath218">
      <path
         d="M 190.598,245.336 H 403.704 V 604.737 H 190.598 Z"
         transform="translate(-192.4801,-526.84001)"
         id="path218" />
    </clipPath>
    <clipPath
       clipPathUnits="userSpaceOnUse"
       id="clipPath220">
      <path
         d="M 190.598,245.336 H 403.705 V 604.769 H 190.598 Z"
         transform="translate(-191.2975,-526.95571)"
         id="path220" />
    </clipPath>
    <clipPath
       clipPathUnits="userSpaceOnUse"
       id="clipPath222">
      <path
         d="M 190.598,245.336 H 403.705 V 604.769 H 190.598 Z"
         transform="translate(-399.69431,-314.42391)"
         id="path222" />
    </clipPath>
    <clipPath
       clipPathUnits="userSpaceOnUse"
       id="clipPath224">
      <path
         d="M 190.598,245.336 H 403.704 V 604.737 H 190.598 Z"
         transform="translate(-192.4801,-526.13911)"
         id="path224" />
    </clipPath>
    <clipPath
       clipPathUnits="userSpaceOnUse"
       id="clipPath226">
      <path
         d="M 190.598,245.336 H 403.704 V 604.737 H 190.598 Z"
         transform="translate(-191.9911,-525.56071)"
         id="path226" />
    </clipPath>
    <clipPath
       clipPathUnits="userSpaceOnUse"
       id="clipPath228">
      <path
         d="M 190.598,245.336 H 403.705 V 604.769 H 190.598 Z"
         transform="translate(-305.57181,-461.02461)"
         id="path228" />
    </clipPath>
    <clipPath
       clipPathUnits="userSpaceOnUse"
       id="clipPath230">
      <path
         d="M 190.598,245.336 H 403.705 V 604.769 H 190.598 Z"
         transform="translate(-328.82571,-501.04031)"
         id="path230" />
    </clipPath>
    <clipPath
       clipPathUnits="userSpaceOnUse"
       id="clipPath232">
      <path
         d="M 190.598,245.336 H 403.705 V 604.769 H 190.598 Z"
         transform="translate(-372.79021,-489.09411)"
         id="path232" />
    </clipPath>
    <clipPath
       clipPathUnits="userSpaceOnUse"
       id="clipPath234">
      <path
         d="M 190.598,245.336 H 403.705 V 604.769 H 190.598 Z"
         transform="translate(-375.33591,-445.18881)"
         id="path234" />
    </clipPath>
    <clipPath
       clipPathUnits="userSpaceOnUse"
       id="clipPath236">
      <path
         d="M 190.598,245.336 H 403.705 V 604.769 H 190.598 Z"
         transform="translate(-335.97011,-411.98411)"
         id="path236" />
    </clipPath>
    <clipPath
       clipPathUnits="userSpaceOnUse"
       id="clipPath238">
      <path
         d="M 190.598,245.336 H 403.705 V 604.769 H 190.598 Z"
         transform="translate(-363.36021,-500.57752)"
         id="path238" />
    </clipPath>
    <clipPath
       clipPathUnits="userSpaceOnUse"
       id="clipPath240">
      <path
         d="M 190.598,245.336 H 403.705 V 604.769 H 190.598 Z"
         transform="translate(-363.36021,-500.57752)"
         id="path240" />
    </clipPath>
    <clipPath
       clipPathUnits="userSpaceOnUse"
       id="clipPath242">
      <path
         d="M 190.598,245.336 H 403.705 V 604.769 H 190.598 Z"
         transform="translate(-330.21401,-472.34801)"
         id="path242" />
    </clipPath>
    <clipPath
       clipPathUnits="userSpaceOnUse"
       id="clipPath244">
      <path
         d="M 190.598,245.336 H 403.705 V 604.769 H 190.598 Z"
         transform="translate(-365.32711,-493.74301)"
         id="path244" />
    </clipPath>
    <clipPath
       clipPathUnits="userSpaceOnUse"
       id="clipPath246">
      <path
         d="M 190.598,245.336 H 403.705 V 604.769 H 190.598 Z"
         transform="translate(-380.23281,-453.03571)"
         id="path246" />
    </clipPath>
    <clipPath
       clipPathUnits="userSpaceOnUse"
       id="clipPath248">
      <path
         d="M 190.598,245.336 H 403.705 V 604.769 H 190.598 Z"
         transform="translate(-346.95751,-426.40141)"
         id="path248" />
    </clipPath>
    <clipPath
       clipPathUnits="userSpaceOnUse"
       id="clipPath250">
      <path
         d="M 190.598,245.336 H 403.705 V 604.769 H 190.598 Z"
         transform="translate(-328.40801,-428.70511)"
         id="path250" />
    </clipPath>
    <clipPath
       clipPathUnits="userSpaceOnUse"
       id="clipPath252">
      <path
         d="M 190.598,245.336 H 403.705 V 604.769 H 190.598 Z"
         transform="translate(-304.22961,-467.61141)"
         id="path252" />
    </clipPath>
    <clipPath
       clipPathUnits="userSpaceOnUse"
       id="clipPath254">
      <path
         d="M 190.598,245.336 H 403.705 V 604.769 H 190.598 Z"
         transform="translate(-362.70251,-471.21131)"
         id="path254" />
    </clipPath>
    <clipPath
       clipPathUnits="userSpaceOnUse"
       id="clipPath256">
      <path
         d="M 190.598,245.336 H 403.705 V 604.769 H 190.598 Z"
         transform="translate(-355.32351,-447.70571)"
         id="path256" />
    </clipPath>
    <clipPath
       clipPathUnits="userSpaceOnUse"
       id="clipPath258">
      <path
         d="M 190.598,245.336 H 403.705 V 604.769 H 190.598 Z"
         transform="translate(-346.92131,-443.13211)"
         id="path258" />
    </clipPath>
    <clipPath
       clipPathUnits="userSpaceOnUse"
       id="clipPath260">
      <path
         d="M 190.598,245.336 H 403.705 V 604.769 H 190.598 Z"
         transform="translate(-323.55561,-454.00271)"
         id="path260" />
    </clipPath>
    <clipPath
       clipPathUnits="userSpaceOnUse"
       id="clipPath262">
      <path
         d="M 190.598,245.336 H 403.705 V 604.769 H 190.598 Z"
         transform="translate(-327.31821,-479.35981)"
         id="path262" />
    </clipPath>
    <clipPath
       clipPathUnits="userSpaceOnUse"
       id="clipPath264">
      <path
         d="M 190.598,245.336 H 403.705 V 604.769 H 190.598 Z"
         transform="translate(-354.10551,-475.73101)"
         id="path264" />
    </clipPath>
    <clipPath
       clipPathUnits="userSpaceOnUse"
       id="clipPath266">
      <path
         d="M 190.598,245.336 H 403.705 V 604.769 H 190.598 Z"
         transform="translate(-357.53481,-457.85031)"
         id="path266" />
    </clipPath>
    <clipPath
       clipPathUnits="userSpaceOnUse"
       id="clipPath268">
      <path
         d="M 190.598,245.336 H 403.705 V 604.769 H 190.598 Z"
         transform="translate(-335.85961,-478.12551)"
         id="path268" />
    </clipPath>
    <clipPath
       clipPathUnits="userSpaceOnUse"
       id="clipPath270">
      <path
         d="M 190.598,245.336 H 403.705 V 604.769 H 190.598 Z"
         transform="translate(-327.71251,-461.62671)"
         id="path270" />
    </clipPath>
    <clipPath
       clipPathUnits="userSpaceOnUse"
       id="clipPath272">
      <path
         d="M 190.598,245.336 H 403.705 V 604.769 H 190.598 Z"
         transform="translate(-340.83091,-448.58861)"
         id="path272" />
    </clipPath>
    <clipPath
       clipPathUnits="userSpaceOnUse"
       id="clipPath274">
      <path
         d="M 190.598,245.336 H 403.705 V 604.769 H 190.598 Z"
         transform="translate(-353.49701,-464.21991)"
         id="path274" />
    </clipPath>
  </defs>
  <g
     inkscape:label="Lag 1"
     inkscape:groupmode="layer"
     id="layer1"
     transform="translate(-67.204169,-85.195834)">
    <g
       id="g1"
       transform="matrix(1.5774279,0,0,1.5774279,-38.805559,-49.194447)">
      <path
         id="path85"
         d="m 85.744581,97.737852 -2.611967,14.938378 2.448631,2.7753 39.426795,0.0818 1.87748,-5.46946 -6.1221,-14.529861 z"
         style="fill:#bc1e24;fill-opacity:1;fill-rule:nonzero;stroke:none;stroke-width:0.352778" />
      <path
         id="path86"
         d="m 67.823151,112.59657 71.014869,72.3205"
         style="fill:#6085cc;fill-opacity:1;fill-rule:nonzero;stroke:#231f20;stroke-width:0.244828;stroke-linecap:butt;stroke-linejoin:miter;stroke-miterlimit:10;stroke-dasharray:none;stroke-opacity:1" />
      <path
         id="path87"
         d="m 0,0 c 0,0 -0.139,-154.93 0.81,-179.557 0.567,-14.711 8.214,-44.194 54.029,-44.658 44.953,-0.454 50.72,-31.168 51.008,-32.893 v -0.081 c 0,0 0.003,0.017 0.006,0.044 0.004,-0.027 0.007,-0.044 0.007,-0.044 v 0.084 c 0.291,1.742 6.069,32.436 51.008,32.89 24.622,0.249 38.217,8.88 45.616,19.097"
         style="fill:#3258ae;fill-opacity:1;fill-rule:nonzero;stroke:#231f20;stroke-width:0.694;stroke-linecap:butt;stroke-linejoin:miter;stroke-miterlimit:10;stroke-dasharray:none;stroke-opacity:1"
         transform="matrix(0.35277776,0,0,-0.35277776,67.405993,112.66769)"
         clip-path="url(#clipPath88)" />
      <path
         id="path89"
         d="M 0,0 H -51.455 V 12.321 H -61.607 V -0.087 h -10.759 v 12.388 h -0.174 v 0.107 h -8.764 v -0.107 h -1.547 V -0.174 h -1.014 -4.136 l -13.607,55.137 8.807,12.496 v 13.043 l 1.07,1.736 -2.516,2.95 -3.037,-0.174 v -8.069 h -1.996 v 4.425 l 0.78,1.996 -2.602,2.777 h -5.554 v -8.764 l -6.072,0.045 v 8.937 l -2.865,-0.045 h -0.521 -2.603 v -8.937 h -6.334 v 8.764 h -5.553 l -2.603,-2.777 0.781,-1.996 v -4.425 h -1.996 v 8.069 l -3.037,0.174 -2.517,-2.95 1.071,-1.736 V 67.459 l 8.895,-12.496 -11.831,-48.698 -1.565,-6.439 h -1.718 l 0.189,-32.131 0.347,-6.478 -0.058,-4.47 0.173,-6.073 0.174,-5.38 0.607,-5.814 0.781,-4.078 0.781,-2.777 1.302,-4.078 2.343,-5.466 16.515,2.964 163.504,-0.15 6.247,3.193 7.636,6.942 2.011,3.63 z"
         style="fill:#b4a021;fill-opacity:1;fill-rule:nonzero;stroke:none"
         transform="matrix(0.35277776,0,0,-0.35277776,118.70817,163.37607)"
         clip-path="url(#clipPath90)" />
      <path
         id="path91"
         d="M 0,0 13.488,55.522 4.592,68.036 V 81.091 L 3.44,82.958 6.232,86.232 9.768,86.03 v -8.05 h 1.302 v 4.013 l -0.837,2.138 2.856,3.047 h 6.051 v -8.765 h 5.64 v 8.938 h 6.826 v -8.938 h 5.235 v 8.765 h 6.051 L 45.747,84.131 44.91,81.993 V 77.98 h 1.302 v 8.05 l 3.536,0.202 2.793,-3.274 -1.152,-1.867 V 68.036 L 42.611,55.581 56.455,0.656 55.724,0.62 41.86,55.721 50.695,68.257 v 13.031 l 0.989,1.604 -2.24,2.627 -2.538,-0.145 v -8.088 h -2.69 v 4.837 l 0.725,1.853 -2.35,2.507 h -5.056 v -8.764 h -6.623 v 8.937 h -5.438 v -8.937 h -7.029 v 8.764 H 13.39 l -2.351,-2.507 0.726,-1.853 V 77.286 H 9.074 v 8.088 L 6.537,85.519 4.296,82.892 5.286,81.288 V 68.257 L 14.238,55.665 14.2,55.511 0.884,0.697 18.893,0.752 18.865,13.249 H 29.736 L 29.91,0.754 h 9.809 V 13.249 H 50.594 L 50.739,0.271 50.045,0.263 49.907,12.554 H 40.413 V 0.06 H 29.225 l -0.174,12.494 h -9.49 L 19.589,0.061 Z"
         style="fill:#231f20;fill-opacity:1;fill-rule:nonzero;stroke:none"
         transform="matrix(0.35277776,0,0,-0.35277776,67.988039,163.61614)"
         clip-path="url(#clipPath92)" />
      <path
         id="path93"
         d="m 0,0 h 9.256 l 57.908,-60.767 -3.185,-4.477 -5.553,-5.206 -5.785,-3.363 -182.189,-0.83 -0.174,0.954 -0.52,0.955 -0.607,1.388 -0.956,3.211 -0.867,2.95 -0.434,2.169 -0.433,2.082 -0.261,2.17 -0.521,2.95 -0.26,4.425 -0.087,3.124 v 5.119 l 0.116,3.992 -0.289,5.264 -0.174,9.719 -0.158,23.997 M 1.909,0 H -9.935"
         style="fill:none;stroke:#231f20;stroke-width:0.694;stroke-linecap:butt;stroke-linejoin:miter;stroke-miterlimit:10;stroke-dasharray:none;stroke-opacity:1"
         transform="matrix(0.35277776,0,0,-0.35277776,115.21264,163.41128)"
         clip-path="url(#clipPath94)" />
      <path
         id="path95"
         d="M 0,0 H -11.28 V 0.694 H -0.694 V 13.276 H 10.239 V 0.782 H 20.477 V 13.189 H 31.324 V 0.868 H 61.781 V 0.174 H 30.63 V 12.495 H 21.171 V 0.088 H 9.545 V 12.582 H 0 Z"
         style="fill:#231f20;fill-opacity:1;fill-rule:nonzero;stroke:none"
         transform="matrix(0.35277776,0,0,-0.35277776,89.652829,163.59511)"
         clip-path="url(#clipPath96)" />
      <path
         id="path97"
         d="m 221.591,458.257 h -1.677 v 5.695 h 1.677 z"
         style="fill:#231f20;fill-opacity:1;fill-rule:nonzero;stroke:none"
         transform="matrix(0.35277776,0,0,-0.35277776,-0.03457033,298.5336)"
         clip-path="url(#clipPath98)" />
      <path
         id="path99"
         d="m 207.426,457.563 h -1.678 v 5.405 h 1.678 z"
         style="fill:#231f20;fill-opacity:1;fill-rule:nonzero;stroke:none"
         transform="matrix(0.35277776,0,0,-0.35277776,-0.03457033,298.5336)"
         clip-path="url(#clipPath100)" />
      <path
         id="path101"
         d="m 200.079,456.464 h -1.273 v 5.116 h 1.273 z"
         style="fill:#231f20;fill-opacity:1;fill-rule:nonzero;stroke:none"
         transform="matrix(0.35277776,0,0,-0.35277776,-0.03457033,298.5336)"
         clip-path="url(#clipPath102)" />
      <path
         id="path103"
         d="m 242.885,456.464 h -1.273 v 5.116 h 1.273 z"
         style="fill:#231f20;fill-opacity:1;fill-rule:nonzero;stroke:none"
         transform="matrix(0.35277776,0,0,-0.35277776,-0.03457033,298.5336)"
         clip-path="url(#clipPath104)" />
      <path
         id="path105"
         d="m 235.828,457.563 h -1.678 v 5.405 h 1.678 z"
         style="fill:#231f20;fill-opacity:1;fill-rule:nonzero;stroke:none"
         transform="matrix(0.35277776,0,0,-0.35277776,-0.03457033,298.5336)"
         clip-path="url(#clipPath106)" />
      <path
         id="path107"
         d="M 0,0 H -2.805 L -3.44,-1.302 V -14.085 M -2.805,0 -5.35,2.749 M -48.156,0 h 2.805 l 0.637,-1.302 V -14.085 M -45.351,0 l 2.545,2.749 m 1.359,-1.591 h 4.831 l 0.471,-1.302 v -12.784 m -0.471,14.086 3.412,2.747 M -6.74,1.158 h -4.685 l -0.472,-1.302 v -12.687 m 0.472,13.989 -3.413,2.747 m -12.35,-2.371 h 6.19 m -6.19,-2.083 h 6.19"
         style="fill:none;stroke:#231f20;stroke-width:0.347;stroke-linecap:butt;stroke-linejoin:miter;stroke-miterlimit:10;stroke-dasharray:none;stroke-opacity:1"
         transform="matrix(0.35277776,0,0,-0.35277776,86.362013,134.3619)"
         clip-path="url(#clipPath108)" />
      <path
         id="path109"
         d="m 0,0 v -7.317 m -6.132,7.259 v -7.317"
         style="fill:none;stroke:#231f20;stroke-width:0.694;stroke-linecap:butt;stroke-linejoin:miter;stroke-miterlimit:10;stroke-dasharray:none;stroke-opacity:1"
         transform="matrix(0.35277776,0,0,-0.35277776,79.015626,136.07608)"
         clip-path="url(#clipPath110)" />
      <path
         id="path111"
         d="m 204.585,451.948 h -0.697 v 8.168 h 0.697 z"
         style="fill:#231f20;fill-opacity:1;fill-rule:nonzero;stroke:none"
         transform="matrix(0.35277776,0,0,-0.35277776,-0.03457033,298.5336)"
         clip-path="url(#clipPath112)" />
      <path
         id="path113"
         d="m 237.746,452.021 h -0.708 v 8.171 h 0.708 z"
         style="fill:#231f20;fill-opacity:1;fill-rule:nonzero;stroke:none"
         transform="matrix(0.35277776,0,0,-0.35277776,-0.03457033,298.5336)"
         clip-path="url(#clipPath114)" />
      <path
         id="path115"
         d="m 0,0 c 0,0 -20.246,6.189 -46.104,0 m 44.297,-2.257 c 0,0 -17.701,6.516 -42.604,0 m 41.129,-2.719 c 0,0 -13.623,6.364 -39.481,0.173 m 34.251,-7.644 c -0.604,0.242 -11.393,3.297 -28.697,-0.048 m 4.969,22.66 -2.833,-2.877 m 21.132,2.893 3.093,-3.16 m -30.686,2.523 -2.139,-2.546 m 39.161,2.546 2.14,-2.546 m -17.527,0.636 9.064,-0.519 M -25.972,7.577 -35.055,7.114 M -39.614,6.683 -43.79,6.221 m 37.253,0.462 4.108,-0.462"
         style="fill:none;stroke:#231f20;stroke-width:0.347;stroke-linecap:butt;stroke-linejoin:miter;stroke-miterlimit:10;stroke-dasharray:none;stroke-opacity:1"
         transform="matrix(0.35277776,0,0,-0.35277776,85.994665,139.57553)"
         clip-path="url(#clipPath116)" />
      <path
         id="path117"
         d="M 0,0 C 0,0 1.403,5.592 2.141,6.336 2.636,6.835 3.822,6.835 3.408,5.264 L 1.652,-0.193 Z"
         style="fill:#231f20;fill-opacity:1;fill-rule:nonzero;stroke:none"
         transform="matrix(0.35277776,0,0,-0.35277776,80.310531,143.50724)"
         clip-path="url(#clipPath118)" />
      <path
         id="path119"
         d="M 0,0 C 0,0 0.973,6.575 1.766,7.514 2.315,8.163 3.696,8.26 3.394,6.44 L 1.978,-0.021 Z"
         style="fill:#231f20;fill-opacity:1;fill-rule:nonzero;stroke:none"
         transform="matrix(0.35277776,0,0,-0.35277776,78.23941,143.44194)"
         clip-path="url(#clipPath120)" />
      <path
         id="path121"
         d="m 0,0 c 0,0 -1.177,6.52 -1.958,7.467 -0.549,0.666 -1.93,0.715 -1.598,-1.114 l 1.58,-6.423 z"
         style="fill:#231f20;fill-opacity:1;fill-rule:nonzero;stroke:none"
         transform="matrix(0.35277776,0,0,-0.35277776,77.471023,143.42674)"
         clip-path="url(#clipPath122)" />
      <path
         id="path123"
         d="M 0,0 C 0,0 1.564,4.752 2.221,5.343 2.697,5.772 3.635,5.662 3.143,4.322 L 1.27,-0.36 Z"
         style="fill:#231f20;fill-opacity:1;fill-rule:nonzero;stroke:none"
         transform="matrix(0.35277776,0,0,-0.35277776,81.886673,143.70099)"
         clip-path="url(#clipPath124)" />
      <path
         id="path125"
         d="M 0,0 C 0,0 -1.577,5.529 -2.315,6.274 -2.832,6.796 -4.004,6.726 -3.551,5.167 l 1.905,-5.406 z"
         style="fill:#231f20;fill-opacity:1;fill-rule:nonzero;stroke:none"
         transform="matrix(0.35277776,0,0,-0.35277776,75.492363,143.54044)"
         clip-path="url(#clipPath126)" />
      <path
         id="path127"
         d="M 0,0 C 0,0 -1.385,4.772 -1.954,5.445 -2.341,5.903 -3.303,5.903 -2.925,4.473 l 1.639,-4.769 z"
         style="fill:#231f20;fill-opacity:1;fill-rule:nonzero;stroke:none"
         transform="matrix(0.35277776,0,0,-0.35277776,73.838188,143.75909)"
         clip-path="url(#clipPath128)" />
      <path
         id="path129"
         d="m 0,0 v 6.123 c 0,0 1.049,2.799 2.318,0 C 2.362,5.866 2.318,0 2.318,0 Z"
         style="fill:#231f20;fill-opacity:1;fill-rule:nonzero;stroke:none"
         transform="matrix(0.35277776,0,0,-0.35277776,98.455974,162.38166)"
         clip-path="url(#clipPath130)" />
      <path
         id="path131"
         d="M 0,0 9.451,-0.027 V 15.482 L 0,15.508 Z m 10.146,-0.721 -10.84,0.027 v 16.897 l 10.84,-0.027 z"
         style="fill:#231f20;fill-opacity:1;fill-rule:nonzero;stroke:none"
         transform="matrix(0.35277776,0,0,-0.35277776,97.121275,164.65821)"
         clip-path="url(#clipPath132)" />
      <path
         id="path133"
         d="m 0,0 v 6.123 c 0,0 1.049,2.799 2.317,0 C 2.362,5.866 2.317,0 2.317,0 Z"
         style="fill:#231f20;fill-opacity:1;fill-rule:nonzero;stroke:none"
         transform="matrix(0.35277776,0,0,-0.35277776,90.983013,162.38166)"
         clip-path="url(#clipPath134)" />
      <path
         id="path135"
         d="m 254.24,379.489 h 9.496 v 15.508 h -9.496 z m 10.19,-0.694 h -10.884 v 16.897 h 10.884 z"
         style="fill:#231f20;fill-opacity:1;fill-rule:nonzero;stroke:none"
         transform="matrix(0.35277776,0,0,-0.35277776,-0.03457033,298.5336)"
         clip-path="url(#clipPath136)" />
      <path
         id="path137"
         d="m 0,0 v 6.123 c 0,0 1.049,2.799 2.318,0 C 2.361,5.866 2.318,0 2.318,0 Z"
         style="fill:#231f20;fill-opacity:1;fill-rule:nonzero;stroke:none"
         transform="matrix(0.35277776,0,0,-0.35277776,83.685522,162.38166)"
         clip-path="url(#clipPath138)" />
      <path
         id="path139"
         d="m 243.157,379.142 h -10.233 v 16.203 h 10.233 z"
         style="fill:none;stroke:#231f20;stroke-width:0.694;stroke-linecap:butt;stroke-linejoin:miter;stroke-miterlimit:10;stroke-dasharray:none;stroke-opacity:1"
         transform="matrix(0.35277776,0,0,-0.35277776,-0.03457033,298.5336)"
         clip-path="url(#clipPath140)" />
      <path
         id="path141"
         d="m 0,0 v 6.123 c 0,0 1.049,2.799 2.317,0 C 2.361,5.866 2.317,0 2.317,0 Z"
         style="fill:#231f20;fill-opacity:1;fill-rule:nonzero;stroke:none"
         transform="matrix(0.35277776,0,0,-0.35277776,76.25775,162.38166)"
         clip-path="url(#clipPath142)" />
      <path
         id="path143"
         d="m 222.296,379.142 h -10.233 v 16.203 h 10.233 z"
         style="fill:none;stroke:#231f20;stroke-width:0.694;stroke-linecap:butt;stroke-linejoin:miter;stroke-miterlimit:10;stroke-dasharray:none;stroke-opacity:1"
         transform="matrix(0.35277776,0,0,-0.35277776,-0.03457033,298.5336)"
         clip-path="url(#clipPath144)" />
      <path
         id="path145"
         d="m 305.806,379.142 h -10.234 v 16.203 h 10.234 z"
         style="fill:#b4a021;fill-opacity:1;fill-rule:nonzero;stroke:none"
         transform="matrix(0.35277776,0,0,-0.35277776,-0.03457033,298.5336)"
         clip-path="url(#clipPath146)" />
      <path
         id="path147"
         d="m 295.919,379.489 h 9.54 v 15.508 h -9.54 z m 10.234,-0.694 h -10.929 v 16.897 h 10.929 z"
         style="fill:#231f20;fill-opacity:1;fill-rule:nonzero;stroke:none"
         transform="matrix(0.35277776,0,0,-0.35277776,-0.03457033,298.5336)"
         clip-path="url(#clipPath148)" />
      <path
         id="path149"
         d="m 0,0 v 6.123 c 0,0 1.05,2.799 2.318,0 C 2.362,5.866 2.318,0 2.318,0 Z"
         style="fill:#231f20;fill-opacity:1;fill-rule:nonzero;stroke:none"
         transform="matrix(0.35277776,0,0,-0.35277776,105.71484,162.38166)"
         clip-path="url(#clipPath150)" />
      <path
         id="path151"
         d="m 326.514,379.142 h -10.233 v 16.203 h 10.233 z"
         style="fill:#b4a021;fill-opacity:1;fill-rule:nonzero;stroke:none"
         transform="matrix(0.35277776,0,0,-0.35277776,-0.03457033,298.5336)"
         clip-path="url(#clipPath152)" />
      <path
         id="path153"
         d="m 316.628,379.489 h 9.539 v 15.508 h -9.539 z m 10.233,-0.694 h -10.927 v 16.897 h 10.927 z"
         style="fill:#231f20;fill-opacity:1;fill-rule:nonzero;stroke:none"
         transform="matrix(0.35277776,0,0,-0.35277776,-0.03457033,298.5336)"
         clip-path="url(#clipPath154)" />
      <path
         id="path155"
         d="m 0,0 v 6.123 c 0,0 1.049,2.799 2.318,0 C 2.361,5.866 2.318,0 2.318,0 Z"
         style="fill:#231f20;fill-opacity:1;fill-rule:nonzero;stroke:none"
         transform="matrix(0.35277776,0,0,-0.35277776,113.02083,162.38166)"
         clip-path="url(#clipPath156)" />
      <path
         id="path157"
         d="m 201.449,379.142 h -10.234 v 16.203 h 10.234 z"
         style="fill:#b4a021;fill-opacity:1;fill-rule:nonzero;stroke:#231f20;stroke-width:0.694;stroke-linecap:butt;stroke-linejoin:miter;stroke-miterlimit:10;stroke-dasharray:none;stroke-opacity:1"
         transform="matrix(0.35277776,0,0,-0.35277776,-0.03457033,298.5336)"
         clip-path="url(#clipPath158)" />
      <path
         id="path159"
         d="m 0,0 v 6.123 c 0,0 1.05,2.799 2.318,0 C 2.362,5.866 2.318,0 2.318,0 Z"
         style="fill:#231f20;fill-opacity:1;fill-rule:nonzero;stroke:none"
         transform="matrix(0.35277776,0,0,-0.35277776,68.902862,162.38166)"
         clip-path="url(#clipPath160)" />
      <path
         id="path161"
         d="m 0,0 -12.63,4.064 0.381,0.635 -19.567,19.566 h -4.773 -5.075 -4.469 l -1.692,2.56 h -1.996 -11.497 v 5.12 1.215 c -1.866,2.864 -3.948,2.733 -3.948,2.733 v -8.33 h -1.432 v 22.82 c -4.135,4.136 -6.985,0 -6.985,0 V 26.782 h -3.384 v -0.564 h -3.297 v 1.952 h 3.297 v 3.818 h -3.282 v 18.309 c -3.789,4.396 -6.942,0.028 -6.942,0.028 V 31.93 h -1.678 v -3.76 h 1.678 v -1.967 h -3.767 v 2.747 h -2.365 l 0.087,25.772 21.548,1.388 v 1.157 h -21.576 v 2.198 l 6.304,2.69 h -6.246 v 9.314 l 11.742,1.128 v 0.29 h -11.742 v 7.664 h 2.602 v 0.839 h -2.776 v 3.615 h -1.505 V 81.39 h -4.28 v -0.839 h 4.164 v -7.664 h -14.461 v -0.464 l 14.461,-0.924 v -9.372 h -6.709 l 4.974,-2.661 v -2.198 h -23.601 V 56.11 l 23.486,-1.388 -0.464,-10.875 h -5.783 v -3.355 l 5.436,-3.471 -0.39,-8.071 h -12.972 v -7.201 h -1.388 l -0.082,-14.212 -61.872,1.37 6.809,-3.164 5.512,-2.563 -13.016,-0.868 c 0,0 -0.577,-11.106 -4.742,-19.783 l 0.577,-2.197 115.318,-3.608 43.732,0.934 16.66,-3.885 2.43,4.686 2.256,4.859 -2.083,13.71 z"
         style="fill:#2f2918;fill-opacity:1;fill-rule:nonzero;stroke:none"
         transform="matrix(0.35277776,0,0,-0.35277776,140.54826,181.869)"
         clip-path="url(#clipPath162)" />
      <path
         id="path163"
         d="m 0,0 c -0.578,-0.178 -1.112,-0.14 -1.112,-0.14 l -1.605,-2.906 21.822,-0.478 3.558,-0.425 c -0.81,0 1.447,1.185 0.868,1.822 1.214,0.752 -4.252,1.365 -4.252,1.365 L 17.717,7.091 H 8.52 V 9.174 H 5.165 V 7.207 H 0.653 c 0,0 -0.204,-1.056 -0.42,-1.88 C 0.471,5.24 0.851,5.143 1.138,4.721 -4.28,4.801 -19.13,5.24 -19.13,5.24 l -0.175,-2.139 c 0,0 14.504,-3.596 19.305,-3.101"
         style="fill:#2f2918;fill-opacity:1;fill-rule:nonzero;stroke:none"
         transform="matrix(0.35277776,0,0,-0.35277776,93.810279,177.94283)"
         clip-path="url(#clipPath164)" />
      <path
         id="path165"
         d="m 0,0 -63.841,1.413 6.81,-3.164 5.511,-2.563 -13.016,-0.867 c 0,0 -0.577,-11.107 -4.742,-19.784 l 0.577,-2.198 113.41,-4.085 46.855,1.649 15.446,-4.252 2.256,3.471 3.123,9.024 1.736,9.198 -3.5,4.663 -16.891,5.437 -90.545,2.016 m 107.639,-19.895 -127.819,1.279 0.014,1.411 128.504,-1.278 z m -71.657,9.419 -25.452,0.262 0.014,1.41 25.453,-0.262 z m -19.524,5.857 c 0,-0.575 -0.467,-1.041 -1.042,-1.041 -0.575,0 -1.041,0.466 -1.041,1.041 0,0.575 0.466,1.041 1.041,1.041 0.575,0 1.042,-0.466 1.042,-1.041 z M 88.471,-6.57 c 0,-0.575 -0.467,-1.041 -1.042,-1.041 -0.576,0 -1.041,0.466 -1.041,1.041 0,0.576 0.465,1.041 1.041,1.041 0.575,0 1.042,-0.465 1.042,-1.041 z m 6.941,-0.231 c 0,-0.574 -0.466,-1.041 -1.041,-1.041 -0.575,0 -1.041,0.467 -1.041,1.041 0,0.576 0.466,1.042 1.041,1.042 0.575,0 1.041,-0.466 1.041,-1.042 z m -44.716,1.389 c 0,-0.575 -0.466,-1.042 -1.041,-1.042 -0.576,0 -1.042,0.467 -1.042,1.042 0,0.575 0.466,1.041 1.042,1.041 0.575,0 1.041,-0.466 1.041,-1.041 z m 7.028,-0.232 c 0,-0.575 -0.466,-1.042 -1.041,-1.042 -0.575,0 -1.042,0.467 -1.042,1.042 0,0.575 0.467,1.041 1.042,1.041 0.575,0 1.041,-0.466 1.041,-1.041 z m 7.028,-0.115 c 0,-0.575 -0.465,-1.042 -1.041,-1.042 -0.575,0 -1.041,0.467 -1.041,1.042 0,0.574 0.466,1.041 1.041,1.041 0.576,0 1.041,-0.467 1.041,-1.041 z m -109.677,3.007 c 0,-0.575 -0.466,-1.041 -1.042,-1.041 -0.574,0 -1.041,0.466 -1.041,1.041 0,0.574 0.467,1.042 1.041,1.042 0.576,0 1.042,-0.468 1.042,-1.042 z m 7.028,-0.347 c 0,-0.575 -0.466,-1.042 -1.041,-1.042 -0.575,0 -1.042,0.467 -1.042,1.042 0,0.575 0.467,1.041 1.042,1.041 0.575,0 1.041,-0.466 1.041,-1.041 z m 7.029,0 c 0,-0.575 -0.466,-1.042 -1.042,-1.042 -0.575,0 -1.041,0.467 -1.041,1.042 0,0.575 0.466,1.041 1.041,1.041 0.576,0 1.042,-0.466 1.042,-1.041 z m 43.472,-1.388 c 0,-0.575 -0.467,-1.042 -1.042,-1.042 -0.575,0 -1.041,0.467 -1.041,1.042 0,0.575 0.466,1.041 1.041,1.041 0.575,0 1.042,-0.466 1.042,-1.041 z M 26.66,-4.834 c 0,-0.575 -0.465,-1.042 -1.041,-1.042 -0.575,0 -1.041,0.467 -1.041,1.042 0,0.574 0.466,1.041 1.041,1.041 0.576,0 1.041,-0.467 1.041,-1.041 z M 0.022,-1.479 V 0.43 c -2.372,-0.174 -4.339,0.173 -5.148,1.388 2.776,1.851 5.9,0.231 5.9,0.231 h 2.371 v -3.5 -0.51 m 0,0.425 V -5.035 H 0.774 c 0,0 -2.791,-1.622 -5.9,0.23 1.026,1.185 2.024,1.532 5.148,1.389 v 1.909 m 0,0.532 v -0.866 m -0.029,0.868 h -8.924 c 0,0 -2.357,1.648 -2.327,-0.723 M -0.007,-2.44 h -8.924 c 0,0 -2.357,-1.541 -2.327,0.831 m -36.537,-14.249 -1.917,0.909 c 0,0 0.779,1.253 1.353,2.109 2.362,2.944 0.9,4.262 0.9,4.262 l -2.341,-1.571 -0.246,-2.048 -1.794,-3.243 3.28,-1.769 c 0,0 3.678,5.997 4.719,7.689 -1.475,0.564 -2.039,-0.781 -2.039,-0.781 l 0.173,-2.299 m -0.37,-4.143 1.851,-1.035 c 0,0 0.572,1.36 0.939,2.324 1.033,3.63 2.954,3.201 2.954,3.201 l 0.074,-2.819 -1.527,-1.386 -1.606,-3.34 -3.342,1.65 c 0,0 2.76,6.472 3.537,8.3 1.315,-0.877 0.545,-2.115 0.545,-2.115 l -1.976,-1.191 m -3.932,-4.055 c 0,0 -0.357,-0.843 0.369,-1.292 0.369,-0.228 0.825,-0.292 1.356,0.314 l 0.716,1.421 m 2.202,7.268 c 0,0 0.51,-0.065 0.76,-0.38"
         style="fill:none;stroke:#ffffff;stroke-width:0.347;stroke-linecap:butt;stroke-linejoin:miter;stroke-miterlimit:10;stroke-dasharray:none;stroke-opacity:1"
         transform="matrix(0.35277776,0,0,-0.35277776,101.52207,179.17932)"
         clip-path="url(#clipPath166)" />
      <path
         id="path167"
         d="m 0,0 21.345,-0.467 -0.004,0.062 c -0.816,0.077 -1.732,0.717 -2.309,1.351 l -0.14,0.154 0.177,0.11 c 0.98,0.607 2.019,0.844 2.432,0.919 l -1.5,7.668 h -9.228 v 2.082 H 7.766 V 9.913 H 3.222 C 3.164,9.622 3.021,8.927 2.867,8.317 3.425,8.116 4.339,7.673 4.09,5.022 3.88,2.777 2.35,2.535 1.702,2.535 H 1.701 c -0.119,0 -0.219,0.008 -0.292,0.016 z M 21.718,-0.822 -0.581,-0.335 1.224,2.935 1.349,2.91 c 0.001,0 0.142,-0.028 0.352,-0.028 h 10e-4 c 0.687,0 1.866,0.283 2.042,2.173 C 3.98,7.561 3.131,7.857 2.676,8.016 L 2.452,8.097 2.491,8.25 c 0.213,0.81 0.416,1.859 0.418,1.87 l 0.028,0.14 h 4.482 v 1.966 h 3.701 v -2.082 h 9.167 L 21.912,1.839 21.728,1.814 C 21.716,1.813 20.551,1.655 19.437,1.024 20.002,0.46 20.818,-0.067 21.504,-0.067 h 0.161 z"
         style="fill:#ffffff;fill-opacity:1;fill-rule:nonzero;stroke:none"
         transform="matrix(0.35277776,0,0,-0.35277776,92.954122,178.91258)"
         clip-path="url(#clipPath168)" />
      <path
         id="path169"
         d="m 0,0 c -5.499,0 -17.75,3.077 -18.308,3.218 l -0.143,0.036 0.2,2.45 0.164,-0.005 C -17.937,5.694 -3.088,5.256 2.229,5.178 L 2.223,4.831 C -2.792,4.905 -16.283,5.299 -17.932,5.347 L -18.081,3.519 C -16.552,3.139 -3.279,-0.115 1.075,0.411 L 1.133,0.118 C 0.793,0.078 0.432,0 0,0"
         style="fill:#ffffff;fill-opacity:1;fill-rule:nonzero;stroke:none"
         transform="matrix(0.35277776,0,0,-0.35277776,93.443778,177.99751)"
         clip-path="url(#clipPath170)" />
      <path
         id="path171"
         d="m 0,0 0.087,11.454 h 1.388 v 7.201 h 12.972 l 0.391,8.07 -5.437,3.471 v 3.355 h 5.784 l 0.463,10.875 -23.486,1.389 v 1.157 h 23.602 v 2.198 l -4.975,2.661 h 6.71 v 9.372 L 3.037,62.127 v 0.464 h 14.462 v 7.664 h -4.165 v 0.84 h 4.281 v 3.615 h 1.504 v -3.615 h 2.777 v -0.84 h -2.603 v -7.664 h 11.742 v -0.29 L 19.293,61.172 v -9.313 h 6.247 l -6.305,-2.69 V 46.971 H 40.811 V 45.815 L 19.263,44.426 19.176,18.655 h 2.365 v -2.748 h 3.768 v 1.967 H 23.63 v 3.76 h 1.679 v 18.394 c 0,0 3.152,4.369 6.941,-0.028 V 21.692 h 3.283 v -3.818 h -3.298 v -1.953 h 3.298 v 0.565 h 3.384 v 23.601 c 0,0 2.849,4.136 6.984,0 v -22.82 h 1.432 v 8.33 c 0,0 2.083,0.13 3.949,-2.733 v -1.216 -5.119 h 11.497 1.995 l 1.692,-2.559 h 4.469 5.076 4.772 l 19.567,-19.567 -0.39,-0.65"
         style="fill:none;stroke:#ffffff;stroke-width:0.347;stroke-linecap:butt;stroke-linejoin:miter;stroke-miterlimit:10;stroke-dasharray:none;stroke-opacity:1"
         transform="matrix(0.35277776,0,0,-0.35277776,100.82569,178.19091)"
         clip-path="url(#clipPath172)" />
      <path
         id="path173"
         d="m 223.081,339.87 h 0.564 v 11.236 h -0.564 z"
         style="fill:#39321b;fill-opacity:1;fill-rule:nonzero;stroke:none"
         transform="matrix(0.35277776,0,0,-0.35277776,-0.03457033,298.5336)"
         clip-path="url(#clipPath174)" />
      <path
         id="path175"
         d="m 223.081,339.87 h 0.564 v 11.236 h -0.564 z m 3.558,-0.13 -3.275,5.749 78.592,72.865 m 1.446,-6.97 -11.518,-7.665 m -0.168,-0.694 8.151,-10.066 m -0.765,-1.34 -13.929,-3.519 m 19.993,-13.999 6.046,-4.512"
         style="fill:none;stroke:#ffffff;stroke-width:0.347;stroke-linecap:butt;stroke-linejoin:miter;stroke-miterlimit:10;stroke-dasharray:none;stroke-opacity:1"
         transform="matrix(0.35277776,0,0,-0.35277776,-0.03457033,298.5336)"
         clip-path="url(#clipPath176)" />
      <path
         id="path177"
         d="m 0,0 -16.268,10.149 0.104,0.166 0.42,-0.084 15.928,-9.937 z"
         style="fill:#ffffff;fill-opacity:1;fill-rule:nonzero;stroke:none"
         transform="matrix(0.35277776,0,0,-0.35277776,106.18054,165.78452)"
         clip-path="url(#clipPath178)" />
      <path
         id="path179"
         d="M 0,0 -5.454,-11.68 M 6.212,13.275 1.475,3.254 m 8.374,36.422 7.889,-7.411 M 1.045,21.587 8.084,38.108 m -1.255,-5.864 1.272,3.01 M 2.409,21.504 6.414,30.91 m 9.942,-9.289 -6.478,16.487 m 1.256,-5.864 -1.269,3.052 m 5.167,-13.792 -3.479,9.413 m 1.246,-10.829 12.06,-3.268 -5.783,14.866 m 3.701,-37.63 6.765,-5.652 M 9.849,14.1 15.894,6.81 m 6.976,-7.988 6.588,-7.803 12.409,-25.163 m -27.594,54.926 0.956,-4.137 m 0.433,-2.111 1.26,-3.866 m 8.285,4.474 4.281,-10.99 m -6.639,1.05 6.639,-12.389 M 9.821,8.316 25.819,-43.539 m 1.47,58.797 24.887,-49.676 M -9.502,-22.17 H 77.79 m -51.672,8.331 v -20.015 m 15.705,20.015 v -20.305 m 11.888,20.305 v -20.652 m -39.047,20.087 v -19.103 m -86.661,20.594 h -0.277 v -7.289 h 0.277 z m -0.219,-0.58 h -0.069 v 4.816 h 0.069 z"
         style="fill:none;stroke:#ffffff;stroke-width:0.347;stroke-linecap:butt;stroke-linejoin:miter;stroke-miterlimit:10;stroke-dasharray:none;stroke-opacity:1"
         transform="matrix(0.35277776,0,0,-0.35277776,104.14695,167.49267)"
         clip-path="url(#clipPath180)" />
      <path
         id="path181"
         d="m 223.775,362.214 h -1.996 v 1.041 h 1.996 z"
         style="fill:#ffffff;fill-opacity:1;fill-rule:nonzero;stroke:none"
         transform="matrix(0.35277776,0,0,-0.35277776,-0.03457033,298.5336)"
         clip-path="url(#clipPath182)" />
      <path
         id="path183"
         d="m 0,0 c 18.658,7.983 26.804,2.957 39.801,-2.203 1.323,-0.525 6.017,-3.635 23.638,2.092 17.621,5.727 21.241,2.845 32.298,-1.841 11.057,-4.685 19.914,-3.221 30.122,0.628 9.346,3.524 13.54,5.895 31.127,-1.799 14.07,-6.155 21.671,-2.134 21.671,-2.134 0,0 -5.403,-21.61 -41.787,-26.676 -20.364,0.035 -48.014,-2.286 -57.848,-34.244 0,0 -4.397,26.295 -37.023,33.005 -19.869,2.043 -52.219,0.392 -63.81,30.941 C -22.031,-1.65 -18.657,-7.982 0,0"
         style="fill:#3258ae;fill-opacity:1;fill-rule:nonzero;stroke:none"
         transform="matrix(0.35277776,0,0,-0.35277776,76.928275,187.94906)"
         clip-path="url(#clipPath184)" />
      <path
         id="path185"
         d="m 0,0 c -1.241,0.433 -2.573,0.852 -4.317,1.358 -12.564,3.647 -16.15,7.066 -30.89,1.04 -17.74,-7.251 -24.35,-4.574 -31.044,-1.645 -9.402,4.113 -11.762,9.107 -30.042,2.687 -19.952,-7.006 -28.81,-2.512 -30.544,-1.736 -1.142,0.512 -12.796,8.504 -27.072,3.124 -6.417,-2.418 -10.271,-3.692 -13.085,-4.41 m 67.595,-19.062 c 11.14,5.563 20.546,6.038 32.781,-0.419 M -184.697,23.03 c 0,0 3.896,-7.536 22.553,0.447 18.658,7.982 26.388,3.187 40.426,-2.083 5.113,-1.92 8.61,-2.428 22.976,2.083 17.678,5.55 21.422,2.949 32.478,-1.736 11.057,-4.685 19.033,-2.994 28.505,0.173 15.567,5.206 16.025,5.957 33.688,-1.562 C 6.337,15.923 13.19,17.078 16.297,18.125 17.571,18.554 10,-5.448 -28.295,-7.993 c -20.131,-0.926 -44.136,-2.892 -54.722,-34.825 0,0 -3.646,26.438 -36.271,33.148 -13.189,3.818 -48.765,-6.074 -65.409,32.7 z"
         style="fill:none;stroke:#ffffff;stroke-width:0.694;stroke-linecap:butt;stroke-linejoin:miter;stroke-miterlimit:10;stroke-dasharray:none;stroke-opacity:1"
         transform="matrix(0.35277776,0,0,-0.35277776,134.00003,196.34192)"
         clip-path="url(#clipPath186)" />
      <path
         id="path187"
         d="m 302.01,561.714 h -2.023 v 2.712 h 2.023 z m -4.912,2.712 h 2.023 v -2.712 h -2.023 z m -2.89,0 h 2.023 v -2.712 h -2.023 z m 10.22,0 v 0.867 h -1.55 v 3.569 h -0.868 v -3.569 h -2.022 v 3.569 h -0.868 v -3.569 h -2.022 v 3.569 h -0.868 v -3.569 h -2.022 v 3.569 h -0.868 v -3.569 h -1.652 v -0.867 h 1.652 v -2.712 h -1.652 v -0.868 h 1.652 v -3.915 l 0.434,-0.846 0.434,0.846 v 3.915 h 2.022 v -3.915 l 0.434,-0.846 0.434,0.846 v 3.915 h 2.022 v -3.915 l 0.434,-0.846 0.434,0.846 v 3.915 h 2.022 v -3.915 l 0.434,-0.846 0.434,0.846 v 3.915 h 1.55 v 0.868 h -1.55 v 2.712 z"
         style="fill:#f6faf9;fill-opacity:1;fill-rule:nonzero;stroke:#231f20;stroke-width:0.139;stroke-linecap:butt;stroke-linejoin:miter;stroke-miterlimit:10;stroke-dasharray:none;stroke-opacity:1"
         transform="matrix(0.35277776,0,0,-0.35277776,-0.03457033,298.5336)"
         clip-path="url(#clipPath188)" />
      <path
         id="path189"
         d="m 0,0 h -1.649 v -4.773 h -9.826 L -11.454,0 h -1.692 l -0.043,20.218 C -5.814,27.94 0,19.87 0,19.87 Z m 79.105,35.431 -1.836,-4.107 -2.517,1.085 1.91,4.208 -3.254,1.432 -1.952,-4.295 -2.343,0.997 1.996,4.382 -3.124,1.432 -4.035,-9.285 -0.044,-1.518 -2.43,0.825 -1.257,-3.992 -2.43,1.041 1.128,3.818 -3.297,0.998 -1.041,-3.471 -2.647,1.042 0.911,3.687 -3.427,0.694 -0.694,-3.21 -2.777,0.867 0.738,3.689 -3.558,0.737 -0.651,-3.34 -3.644,1.084 0.781,3.514 -3.515,0.651 -0.65,-3.471 -3.428,0.868 0.521,3.557 -3.514,0.564 -0.391,-3.427 -3.34,0.564 0.39,3.731 -3.861,0.434 -0.26,-3.601 -3.515,0.304 0.304,4.425 -3.905,0.303 -0.304,-4.598 -2.169,0.174 0.044,4.381 4.252,2.343 1.735,11.888 -4.816,0.694 -0.781,-5.553 -5.032,0.694 0.347,5.509 -5.076,0.304 -0.347,-5.293 -4.946,0.261 0.043,6.074 h -7.896 V 53.32 l -5.12,-0.216 -0.173,5.596 -5.076,-0.347 0.347,-5.727 -5.076,-0.477 -0.65,5.38 -4.903,-0.738 1.692,-11.713 4.381,-2.474 v -4.555 l -2.255,-0.043 -0.218,4.685 -3.861,-0.261 0.217,-4.641 -3.557,-0.435 -0.305,3.688 -3.643,-0.303 0.346,-3.905 -3.34,-0.521 -0.39,3.688 -3.558,-0.564 0.477,-3.817 -3.254,-0.782 -0.695,3.602 -3.557,-0.782 0.695,-3.644 -3.601,-1.041 -0.738,3.514 -3.471,-0.911 0.737,-3.645 -2.776,-0.867 -0.78,3.34 -3.298,-0.781 0.868,-3.817 -2.647,-0.869 -1.084,3.515 -3.168,-0.998 1.085,-3.948 -2.603,-1.084 -1.172,4.165 -2.169,-0.738 -0.217,1.475 -4.034,9.068 -2.864,-1.388 1.952,-4.34 -2.429,-1.041 -1.909,4.252 -3.254,-1.518 1.952,-4.209 -2.473,-1.214 -1.995,4.338 -2.82,-1.431 4.208,-9.285 3.761,-3.124 14.115,-32.742 -2.083,-0.694 4.165,-9.834 C -0.779,6.046 57.356,-22.069 57.356,-22.069 l 4.164,9.717 -2.082,0.927 14.345,32.626 3.818,3.47 4.397,9.488 z"
         style="fill:#b4a021;fill-opacity:1;fill-rule:nonzero;stroke:none"
         transform="matrix(0.35277776,0,0,-0.35277776,107.42443,106.2961)"
         clip-path="url(#clipPath190)" />
      <path
         id="path191"
         d="m 0,0 h 4.975 v 4.686 h 1.504 v 20.187 m -29.436,26.371 c 0,0 21.611,4.458 45.791,-0.056 m -8.946,6.154 c 0.065,-0.007 0.13,-0.014 0.195,-0.021 1.553,-0.167 3.128,-0.371 4.719,-0.609 M 4.104,58.001 C 5.628,57.956 7.193,57.883 8.789,57.78 M -8.735,57.777 c 1.519,0.097 3.132,0.174 4.826,0.223 m -15.113,-1.274 c 1.358,0.196 3.03,0.412 4.967,0.611 M 18.338,38.7 c 0,0 28.836,-1.794 50.528,-11.252 M 18.338,42.864 c 0,0 24.179,0.173 51.713,-13.138 m -139.902,0.026 c 27.532,13.313 51.412,12.953 51.412,12.953 m 36.43,-5.394 c 0,0 29.53,-1.967 50.442,-11.425 M -21.46,48.995 c 0,0 16.427,3.588 43.326,0.116 m -40.464,-1.792 c 0,0 16.921,3.181 37.456,0 m -37.499,-3.182 c 0,0 11.525,3.239 37.181,0.145 M 70.632,33.608 c 0,0 6.363,-2.198 11.8,-5.553 m -12.09,2.834 c 0,0 4.801,-1.562 10.239,-4.916"
         style="fill:none;stroke:#231f20;stroke-width:0.694;stroke-linecap:butt;stroke-linejoin:miter;stroke-miterlimit:10;stroke-dasharray:none;stroke-opacity:1"
         transform="matrix(0.35277776,0,0,-0.35277776,105.11162,107.91796)"
         clip-path="url(#clipPath192)" />
      <path
         id="path193"
         d="m 0,0 c 0,-0.767 -0.621,-1.388 -1.389,-1.388 -0.766,0 -1.387,0.621 -1.387,1.388 0,0.766 0.621,1.389 1.387,1.389 C -0.621,1.389 0,0.766 0,0"
         style="fill:#231f20;fill-opacity:1;fill-rule:nonzero;stroke:none"
         transform="matrix(0.35277776,0,0,-0.35277776,114.4682,97.102606)"
         clip-path="url(#clipPath194)" />
      <path
         id="path195"
         d="m 0,0 c 0,-0.767 -0.622,-1.389 -1.388,-1.389 -0.766,0 -1.389,0.622 -1.389,1.389 0,0.766 0.623,1.388 1.389,1.388 C -0.622,1.388 0,0.766 0,0"
         style="fill:#231f20;fill-opacity:1;fill-rule:nonzero;stroke:none"
         transform="matrix(0.35277776,0,0,-0.35277776,118.57002,97.714605)"
         clip-path="url(#clipPath196)" />
      <path
         id="path197"
         d="m 0,0 c 0,-0.767 -0.622,-1.388 -1.388,-1.388 -0.767,0 -1.388,0.621 -1.388,1.388 0,0.766 0.621,1.388 1.388,1.388 C -0.622,1.388 0,0.766 0,0"
         style="fill:#231f20;fill-opacity:1;fill-rule:nonzero;stroke:none"
         transform="matrix(0.35277776,0,0,-0.35277776,122.6106,98.694233)"
         clip-path="url(#clipPath198)" />
      <path
         id="path199"
         d="m 0,0 c 0,-0.768 -0.622,-1.389 -1.388,-1.389 -0.766,0 -1.388,0.621 -1.388,1.389 0,0.765 0.622,1.387 1.388,1.387 C -0.622,1.387 0,0.765 0,0"
         style="fill:#231f20;fill-opacity:1;fill-rule:nonzero;stroke:none"
         transform="matrix(0.35277776,0,0,-0.35277776,125.88596,99.581646)"
         clip-path="url(#clipPath200)" />
      <path
         id="path201"
         d="m 0,0 -0.2,-1.625 -4.251,-2.342 v -4.455 m -4.078,-39.668 -0.029,5.928 4.107,33.74 m 43.775,-33.508 8.113,21.592 0.059,4.858 1.458,3.464 2.562,5.821 3.071,-1.36 -1.996,-4.382 2.343,-0.998 1.952,4.295 3.254,-1.432 -1.909,-4.208 2.516,-1.085 1.837,4.107 2.786,-1.126 -4.223,-9.459 -3.644,-3.47 -14.317,-32.626 1.952,-0.825 -3.948,-9.761 c -68.896,27.94 -128.768,0.065 -128.768,0.065 m -5.914,50.666 c 0,0 -6.363,-2.197 -11.801,-5.554 m 12.091,2.835 c 0,0 -4.802,-1.561 -10.239,-4.917 m 16.312,-43.212 -3.991,9.892 1.996,0.694 -14.317,32.626 -3.645,3.471 -1.681,3.922 -2.441,5.247 2.623,1.373 1.995,-4.338 2.473,1.215 -1.952,4.208 3.254,1.519 1.909,-4.252 2.43,1.041 -1.953,4.339 2.864,1.388 4,-8.907 0.189,-5.25 8.113,-21.593 m 62.214,-9.239 h -4.976 v 4.686 h -1.503 v 20.187 c 0,0 6.276,7.666 12.986,-0.202 m -24.845,14.029 c 0,0 -28.837,-1.794 -50.529,-11.252 m 50.876,9.863 c 0,0 -29.357,-1.794 -50.269,-11.252"
         style="fill:none;stroke:#231f20;stroke-width:0.694;stroke-linecap:butt;stroke-linejoin:miter;stroke-miterlimit:10;stroke-dasharray:none;stroke-opacity:1"
         transform="matrix(0.35277776,0,0,-0.35277776,113.25299,89.8254)"
         clip-path="url(#clipPath202)" />
      <path
         id="path203"
         d="m 0,0 c 0,-0.767 0.622,-1.388 1.388,-1.388 0.766,0 1.388,0.621 1.388,1.388 0,0.766 -0.622,1.389 -1.388,1.389 C 0.622,1.389 0,0.766 0,0"
         style="fill:#231f20;fill-opacity:1;fill-rule:nonzero;stroke:none"
         transform="matrix(0.35277776,0,0,-0.35277776,95.765198,97.102606)"
         clip-path="url(#clipPath204)" />
      <path
         id="path205"
         d="m 0,0 c 0,-0.767 0.622,-1.389 1.389,-1.389 0.766,0 1.388,0.622 1.388,1.389 0,0.766 -0.622,1.388 -1.388,1.388 C 0.622,1.388 0,0.766 0,0"
         style="fill:#231f20;fill-opacity:1;fill-rule:nonzero;stroke:none"
         transform="matrix(0.35277776,0,0,-0.35277776,91.663239,97.714605)"
         clip-path="url(#clipPath206)" />
      <path
         id="path207"
         d="m 0,0 c 0,-0.767 0.622,-1.388 1.388,-1.388 0.766,0 1.388,0.621 1.388,1.388 0,0.766 -0.622,1.388 -1.388,1.388 C 0.622,1.388 0,0.766 0,0"
         style="fill:#231f20;fill-opacity:1;fill-rule:nonzero;stroke:none"
         transform="matrix(0.35277776,0,0,-0.35277776,87.622768,98.694233)"
         clip-path="url(#clipPath208)" />
      <path
         id="path209"
         d="m 0,0 c 0,-0.768 0.621,-1.389 1.389,-1.389 0.766,0 1.387,0.621 1.387,1.389 0,0.765 -0.621,1.387 -1.387,1.387 C 0.621,1.387 0,0.765 0,0"
         style="fill:#231f20;fill-opacity:1;fill-rule:nonzero;stroke:none"
         transform="matrix(0.35277776,0,0,-0.35277776,84.347332,99.581646)"
         clip-path="url(#clipPath210)" />
      <path
         id="path211"
         d="M 0,0 0.29,-2.017 4.542,-4.36 v -4.454 m 4.165,-39.495 0.044,5.467 -4.209,34.028 m -45.627,-60.277 -3.992,9.892 1.982,0.868 -14.317,32.625 M 27.016,1.54 h -7.694 v 10.875 h 7.694 z m 9.843,-0.304 -5.026,0.277 0.552,9.935 5.025,-0.279 z m 9.387,-1.445 -4.765,0.674 1.417,10.028 4.765,-0.674 z m -46.214,0 L 4.798,0.465 3.38,10.493 -1.385,9.819 Z m 9.387,1.56 5.026,0.279 -0.551,9.933 -5.026,-0.279 z m 34.519,-10.44 0.291,4.715 3.855,-0.237 -0.296,-4.785 m 3.534,0.06 0.305,3.402 3.674,-0.331 -0.313,-3.706 m 3.283,-0.743 0.507,3.588 3.482,-0.491 -0.532,-3.757 m 3.463,-0.531 0.604,3.234 3.457,-0.646 -0.677,-3.621 m 3.701,-0.809 0.649,3.107 3.442,-0.72 -0.756,-3.614 m 2.799,-1.028 0.786,3.374 3.335,-0.776 -0.827,-3.543 m 2.572,-1.207 1.044,3.561 3.286,-0.963 -1.109,-3.784 m 2.622,-0.918 1.102,3.755 2.246,-0.657 0.145,-3.35 -0.422,-1.443 M 2.389,-9.089 2.098,-4.374 -1.756,-4.611 -1.46,-9.396 m -3.495,-0.37 -0.345,3.832 -3.674,-0.331 0.357,-3.964 m -3.314,-0.579 -0.52,3.682 -3.482,-0.491 0.53,-3.742 m -3.413,-0.802 -0.652,3.49 -3.456,-0.646 0.693,-3.711 m -3.658,-1.011 -0.71,3.399 -3.441,-0.72 0.736,-3.522 m -2.792,-1.067 -0.773,3.321 -3.335,-0.776 0.873,-3.746 m -2.664,-0.849 -0.998,3.406 -3.286,-0.963 1.096,-3.738 m -2.602,-0.987 -1.108,3.778 -2.246,-0.657 -0.05,-3.03"
         style="fill:none;stroke:#231f20;stroke-width:0.694;stroke-linecap:butt;stroke-linejoin:miter;stroke-miterlimit:10;stroke-dasharray:none;stroke-opacity:1"
         transform="matrix(0.35277776,0,0,-0.35277776,96.948415,89.687041)"
         clip-path="url(#clipPath212)" />
      <path
         id="path213"
         d="m 0,0 -2.067,0.901 1.915,4.393 2.066,-0.902 z m -42.044,-12.775 -1.908,0.1 0.218,4.166 1.908,-0.1 z m -103.247,12.716 2.067,0.902 -1.914,4.394 -2.068,-0.902 z m 122.123,-16.404 -1.842,0.504 1.099,4.024 1.843,-0.504 z m -80.376,3.775 1.909,0.1 -0.219,4.166 -1.907,-0.101 z m -18.876,-3.689 1.843,0.504 -1.1,4.025 -1.842,-0.505 z"
         style="fill:none;stroke:#231f20;stroke-width:0.347;stroke-linecap:butt;stroke-linejoin:miter;stroke-miterlimit:10;stroke-dasharray:none;stroke-opacity:1"
         transform="matrix(0.35277776,0,0,-0.35277776,130.82009,100.86406)"
         clip-path="url(#clipPath214)" />
      <path
         id="path215"
         d="m 0,0 v 5.553 h -5.336 v 4.251 h -2.17 v 5.338 M -43.906,0.13 v 5.553 h 5.337 v 4.252 h 2.169 v 5.336"
         style="fill:none;stroke:#231f20;stroke-width:0.694;stroke-linecap:butt;stroke-linejoin:miter;stroke-miterlimit:10;stroke-dasharray:none;stroke-opacity:1"
         transform="matrix(0.35277776,0,0,-0.35277776,112.87644,110.14244)"
         clip-path="url(#clipPath216)" />
      <path
         id="path217"
         d="M 0,0 201.302,-205.004"
         style="fill:#f6faf9;fill-opacity:1;fill-rule:nonzero;stroke:#231f20;stroke-width:0.694;stroke-linecap:butt;stroke-linejoin:miter;stroke-miterlimit:10;stroke-dasharray:none;stroke-opacity:1"
         transform="matrix(0.35277776,0,0,-0.35277776,67.86813,112.67616)"
         clip-path="url(#clipPath218)" />
      <path
         id="path219"
         d="m 0,0 h 106.194 105.513 c 0,0 0.138,-169.261 -0.81,-196.167 -0.158,-4.503 -0.874,-10.272 -2.83,-16.257"
         style="fill:#f6faf9;fill-opacity:1;fill-rule:nonzero;stroke:none"
         transform="matrix(0.35277776,0,0,-0.35277776,67.450935,112.63534)"
         clip-path="url(#clipPath220)" />
      <path
         id="path221"
         d="m 0,0 -0.659,0.216 c 2.078,6.361 2.677,12.3 2.812,16.161 0.917,26.009 0.816,187.174 0.81,195.808 h -211.36 v 0.694 L 4.004,212.862 v -0.337 C 4.005,210.833 3.784,42.956 2.847,16.353 2.71,12.447 2.105,6.439 0,0"
         style="fill:#231f20;fill-opacity:1;fill-rule:nonzero;stroke:none"
         transform="matrix(0.35277776,0,0,-0.35277776,140.96869,187.61183)"
         clip-path="url(#clipPath222)" />
      <path
         id="path223"
         d="M 0,0 206.918,-210.73"
         style="fill:none;stroke:#231f20;stroke-width:1.388;stroke-linecap:round;stroke-linejoin:round;stroke-miterlimit:4;stroke-dasharray:none;stroke-opacity:1"
         transform="matrix(0.35277776,0,0,-0.35277776,67.86813,112.92342)"
         clip-path="url(#clipPath224)" />
      <path
         id="path225"
         d="m 0,0 c -0.008,-11.859 -0.096,-169.565 0.81,-195.25 0.232,-6.583 1.828,-19.209 9.905,-29.806 9.072,-11.902 23.686,-18.047 43.438,-18.265 10.38,-0.115 19.526,-2.006 27.183,-5.62 6.197,-2.926 11.446,-6.985 15.6,-12.065 4.956,-6.058 7.234,-12.207 8.224,-15.781 0.989,3.574 3.269,9.726 8.23,15.791 4.155,5.077 9.403,9.134 15.601,12.058 7.655,3.612 16.799,5.502 27.177,5.617 21.002,0.232 36.157,7.14 45.044,20.532 6.732,10.139 8.088,21.606 8.298,27.539 0.906,25.685 0.818,183.391 0.81,195.25 z m 104.485,-280.134 c 0,0 -0.006,0.03 -0.013,0.08 l 0.23,0.034 -0.158,0.013 -0.076,-0.013 c -0.001,0.006 -0.002,0.013 -0.003,0.016 L 104.46,-280 v 0.03 c -0.188,1.181 -1.739,9.699 -8.599,18.087 -4.022,4.916 -9.109,8.849 -15.118,11.687 -7.475,3.528 -16.426,5.374 -26.605,5.486 -20.202,0.224 -35.183,6.553 -44.527,18.813 -8.31,10.902 -9.95,23.85 -10.189,30.598 -0.938,26.582 -0.811,194.303 -0.81,195.994 L -1.387,1.75 H -0.694 0.26 L 211.707,1.388 V 0.695 c 0.002,-1.691 0.128,-169.412 -0.81,-195.994 -0.214,-6.079 -1.608,-17.834 -8.528,-28.258 -9.157,-13.798 -24.696,-20.915 -46.186,-21.153 -10.177,-0.112 -19.126,-1.957 -26.6,-5.484 -6.009,-2.835 -11.095,-6.766 -15.118,-11.683 -6.867,-8.39 -8.417,-16.908 -8.604,-18.09 l -0.006,-0.037 c 0,-0.003 -0.001,-0.01 -0.002,-0.013 l -0.064,0.01 -0.101,-0.01 0.161,-0.02 -0.009,-0.07 -0.601,0.046 z"
         style="fill:#231f20;fill-opacity:1;fill-rule:nonzero;stroke:none"
         transform="matrix(0.35277776,0,0,-0.35277776,67.695622,113.12747)"
         clip-path="url(#clipPath226)" />
      <path
         id="path227"
         d="m 0,0 c 0,0 -2.516,2.342 -7.087,1.374 -1.301,-0.087 0.867,-2.17 1.562,-2.603 0.694,-0.434 -2.343,0 -3.905,0.607 -1.561,0.607 -2.777,0 -5.293,-0.955 2.776,-1.475 4.202,-2.97 5.64,-3.904 1.189,-0.773 2.343,-1.128 5.64,-0.607 -0.955,-0.955 -1.995,-2.43 -1.995,-2.43 0,0 2.704,-1.461 5.915,2.921 3.267,4.458 6.666,1.504 6.666,1.504 h 5.12 l 5.466,2.43 -0.173,4.772 -6.942,0.434 -4.772,-2.951 -3.977,-1.46 z"
         style="fill:#27963c;fill-opacity:1;fill-rule:nonzero;stroke:#231f20;stroke-width:0.694;stroke-linecap:butt;stroke-linejoin:miter;stroke-miterlimit:10;stroke-dasharray:none;stroke-opacity:1"
         transform="matrix(0.35277776,0,0,-0.35277776,107.76437,135.89437)"
         clip-path="url(#clipPath228)" />
      <path
         id="path229"
         d="m 0,0 c 0,0 1.503,2.661 -2.054,5.264 -0.781,0.781 -1.215,-2.169 -1.215,-2.429 0,-0.261 -1.041,6.333 -9.284,2.429 1.215,-0.434 4.599,-1.648 5.727,-4.599 0,0 -1.128,0.781 -2.517,0.521 -0.26,-1.041 0.551,-4.05 3.674,-5.206 l 4.483,-7.463 0.868,-3.644 3.817,-4.252 3.558,2.516 -1.562,3.905 -6.16,8.417 z"
         style="fill:#27963c;fill-opacity:1;fill-rule:nonzero;stroke:#231f20;stroke-width:0.694;stroke-linecap:butt;stroke-linejoin:miter;stroke-miterlimit:10;stroke-dasharray:none;stroke-opacity:1"
         transform="matrix(0.35277776,0,0,-0.35277776,115.96783,121.77772)"
         clip-path="url(#clipPath230)" />
      <path
         id="path231"
         d="m 0,0 c 0,0 2.747,0.116 6.044,2.719 0,0.868 -3.385,1.302 -3.385,1.302 0,0 4.86,1.128 6.249,8.938 C 7.561,12.117 5.509,11.031 0.56,7.09 0.405,6.966 -0.396,6.451 -0.377,6.625 -0.333,7.014 0.444,9.765 -0.03,11.396 -1.505,10.182 -4.104,8.325 -4.006,6.075 -3.919,4.079 -7.753,-0.144 -7.753,-0.144 l -3.99,-3.211 -2.083,-1.909 -1.996,-3.644 1.736,-1.561 1.734,-0.868 3.124,1.909 2.951,6.681 2.256,1.909 z"
         style="fill:#27963c;fill-opacity:1;fill-rule:nonzero;stroke:#231f20;stroke-width:0.694;stroke-linecap:butt;stroke-linejoin:miter;stroke-miterlimit:10;stroke-dasharray:none;stroke-opacity:1"
         transform="matrix(0.35277776,0,0,-0.35277776,131.47753,125.99207)"
         clip-path="url(#clipPath232)" />
      <path
         id="path233"
         d="m 0,0 c 0,0 2.284,-2.083 2.718,-7.462 1.215,2.169 2.082,2.372 1.041,4.714 2.429,-2.342 0.951,-1.21 4.137,-3.124 2.267,-1.361 2.37,-3.297 2.37,-3.297 0,0 3.818,7.202 -2.69,11.107 0.811,0.434 0.602,0.839 2.777,0.781 C 12.552,2.66 8.569,5.752 6.132,5.119 3.905,4.541 2.313,4.222 2.313,4.222 l -5.843,3.79 -3.992,2.256 -6.074,0.173 -0.173,-3.037 2.69,-2.168 5.119,-0.695 z"
         style="fill:#27963c;fill-opacity:1;fill-rule:nonzero;stroke:#231f20;stroke-width:0.694;stroke-linecap:butt;stroke-linejoin:miter;stroke-miterlimit:10;stroke-dasharray:none;stroke-opacity:1"
         transform="matrix(0.35277776,0,0,-0.35277776,132.37559,141.48088)"
         clip-path="url(#clipPath234)" />
      <path
         id="path235"
         d="M 0,0 C 0,0 5.379,1.996 3.991,9.546 3.383,11.281 4.858,8.331 6.507,7.984 7.288,9.285 7.115,14.144 4.685,15.88 l 0.173,7.202 1.128,5.466 -1.561,4.252 -5.119,-2.95 0.607,-5.727 -0.434,-4.252 -1.996,-3.817 c 0,0 -2.777,-3.211 -2.864,-6.422 1.997,0.261 2.604,1.042 2.777,1.302 0.174,0.26 -0.24,-3.588 1.129,-5.64 C 0.086,2.951 0,0 0,0"
         style="fill:#27963c;fill-opacity:1;fill-rule:nonzero;stroke:#231f20;stroke-width:0.694;stroke-linecap:butt;stroke-linejoin:miter;stroke-miterlimit:10;stroke-dasharray:none;stroke-opacity:1"
         transform="matrix(0.35277776,0,0,-0.35277776,118.48821,153.19477)"
         clip-path="url(#clipPath236)" />
      <path
         id="path237"
         d="m 0,0 c 3.353,-1.704 10.181,-5.321 0.463,-15.039 -2.893,-2.43 -6.373,-5.308 -3.066,-5.498 3.008,-0.173 2.777,2.198 3.818,4.455 0.754,1.634 3.992,7.636 11.917,3.182 2.43,-1.447 4.32,-2.854 3.759,-10.47 -0.577,-7.868 0.29,-9.95 2.892,-14.346 2.636,-4.454 0.695,-11.455 -4.049,-13.189 -2.776,-1.042 -6.71,-0.812 -9.833,2.775 -1.966,1.85 -3.124,3.413 -5.207,1.968 -1.851,-2.198 0.116,-3.356 1.91,-3.356 0,0 6.073,0.868 9.66,-6.015 1.966,-4.628 -2.546,-11.916 -10.066,-12.958 -7.057,-1.272 -6.639,-2.43 -9.487,-5.322 -2.579,-2.62 -7.751,-6.942 -14.692,-0.578 -3.009,2.892 -3.529,4.684 -1.736,10.76 0.436,1.476 1.677,3.123 0.809,4.859 -0.789,1.578 -2.197,0.519 -2.429,-1.505 -0.264,-2.301 -0.231,-3.471 -0.231,-6.248 -0.347,-3.471 -2.084,-9.255 -11.223,-7.519 -2.429,0.81 -4.512,2.314 -6.826,7.057 -1.613,3.308 -4.907,5.733 -7.464,7.161 -1.111,0.619 -4.357,2.143 -5.283,3.117 -1.679,1.763 -3.179,4.695 -2.252,8.683 0.267,1.151 1.232,3.368 2.628,4.629 1.493,1.35 3.975,2.164 10.058,1.979 1.503,-0.117 5.71,0.67 3.181,2.487 -2.251,1.616 -3.181,0.403 -4.627,-0.406 -0.958,-0.536 -8.882,-3.944 -12.669,1.621 -2.834,4.163 -3.587,6.015 -1.041,9.255 2.388,3.042 7.52,6.71 8.792,12.726 1.272,6.016 3.124,11.57 9.718,12.611 1.158,0.347 7.224,-0.833 8.389,-8.967 0.43,-2.997 1.272,-3.761 2.718,-4.222 0.882,-0.281 3.877,-0.405 -0.289,4.685 -4.164,5.09 -5.264,6.884 -2.719,12.206 2.545,5.322 10.242,4.005 12.032,2.43 5.11,-4.497 9.43,-3.356 13.19,-2.662 0,0 5.727,1.446 9.255,-0.346"
         style="fill:#bc1e24;fill-opacity:1;fill-rule:nonzero;stroke:none"
         transform="matrix(0.35277776,0,0,-0.35277776,128.15083,121.94098)"
         clip-path="url(#clipPath238)" />
      <path
         id="path239"
         d="m 0,0 c 3.353,-1.704 10.181,-5.321 0.463,-15.039 -2.893,-2.43 -6.373,-5.308 -3.066,-5.498 3.008,-0.173 2.777,2.198 3.818,4.455 0.754,1.634 3.992,7.636 11.917,3.182 2.43,-1.447 4.32,-2.854 3.759,-10.47 -0.577,-7.868 0.29,-9.95 2.892,-14.346 2.636,-4.454 0.695,-11.455 -4.049,-13.189 -2.776,-1.042 -6.71,-0.812 -9.833,2.775 -1.966,1.85 -3.124,3.413 -5.207,1.968 -1.851,-2.198 0.116,-3.356 1.91,-3.356 0,0 6.073,0.868 9.66,-6.015 1.966,-4.628 -2.546,-11.916 -10.066,-12.958 -7.057,-1.272 -6.639,-2.43 -9.487,-5.322 -2.579,-2.62 -7.751,-6.942 -14.692,-0.578 -3.009,2.892 -3.529,4.684 -1.736,10.76 0.436,1.476 1.677,3.123 0.809,4.859 -0.789,1.578 -2.197,0.519 -2.429,-1.505 -0.264,-2.301 -0.231,-3.471 -0.231,-6.248 -0.347,-3.471 -2.084,-9.255 -11.223,-7.519 -2.429,0.81 -4.512,2.314 -6.826,7.057 -1.613,3.308 -4.907,5.733 -7.464,7.161 -1.111,0.619 -4.357,2.143 -5.283,3.117 -1.679,1.763 -3.179,4.695 -2.252,8.683 0.267,1.151 1.232,3.368 2.628,4.629 1.493,1.35 3.975,2.164 10.058,1.979 1.503,-0.117 5.71,0.67 3.181,2.487 -2.251,1.616 -3.181,0.403 -4.627,-0.406 -0.958,-0.536 -8.882,-3.944 -12.669,1.621 -2.834,4.163 -3.587,6.015 -1.041,9.255 2.388,3.042 7.52,6.71 8.792,12.726 1.272,6.016 3.124,11.57 9.718,12.611 1.158,0.347 7.224,-0.833 8.389,-8.967 0.43,-2.997 1.272,-3.761 2.718,-4.222 0.882,-0.281 3.877,-0.405 -0.289,4.685 -4.164,5.09 -5.264,6.884 -2.719,12.206 2.545,5.322 10.242,4.005 12.032,2.43 5.11,-4.497 9.43,-3.356 13.19,-2.662 0,0 5.727,1.446 9.255,-0.346 z"
         style="fill:none;stroke:#231f20;stroke-width:0.694;stroke-linecap:butt;stroke-linejoin:miter;stroke-miterlimit:10;stroke-dasharray:none;stroke-opacity:1"
         transform="matrix(0.35277776,0,0,-0.35277776,128.15083,121.94098)"
         clip-path="url(#clipPath240)" />
      <path
         id="path241"
         d="m 0,0 c 1.389,-0.434 2.899,-3.896 -0.232,-1.967 -2.187,1.347 -7.404,6.942 -10.239,-0.867 -1.962,-5.406 2.052,-5.187 1.909,-7.636 -0.153,-2.642 -1.986,-7.534 2.312,-10.33 0.927,-0.603 4.437,-1.536 6.539,0.959 0.926,1.098 1.186,1.879 3.095,3.441 0.197,0.16 1.303,0.067 1.07,-0.838 -0.332,-1.288 -5.553,-2.603 -4.859,-7.81 0.52,-1.909 2.256,-5.206 7.115,-4.685 4.859,0.52 4.685,-0.174 7.983,-1.736 3.297,-1.562 6.271,1.172 6.595,5.554 0.145,1.966 0.52,1.909 -1.736,4.859 -2.256,2.951 0.362,2.921 0.84,1.837 0.349,-0.795 -0.319,-8.779 7.664,-7.217 3.124,1.388 3.944,3.247 4.685,7.289 0.575,3.139 2.081,3.777 2.777,4.511 0.752,0.796 3.538,3.572 -0.348,7.984 -0.961,1.092 -2.197,2.082 -5.726,1.041 -1.388,-0.521 -4.339,-1.736 -3.992,0 0.348,1.735 0.348,1.562 2.951,1.388 2.603,-0.173 8.064,0.629 6.48,7.472 C 34.377,5.432 31.701,6.19 30.485,6.711 29.464,7.148 27.882,9.14 26.841,11.395 25.8,13.652 17.012,16.83 16.081,10.354 15.561,6.731 16.532,5.917 15.908,4.628 15.586,3.963 13.193,1.103 14.519,7.231 c 0.546,2.522 2.43,5.726 -1.562,7.983 C 8.966,17.47 6.847,15.499 5.842,13.999 4.587,12.125 3.76,9.661 -2.488,10.528 -4.347,10.786 -7.198,7.518 -4.512,2.777 -3.907,1.708 -3.415,1.069 0,0"
         style="fill:#bc1e24;fill-opacity:1;fill-rule:nonzero;stroke:#231f20;stroke-width:0.694;stroke-linecap:butt;stroke-linejoin:miter;stroke-miterlimit:10;stroke-dasharray:none;stroke-opacity:1"
         transform="matrix(0.35277776,0,0,-0.35277776,116.45759,131.89972)"
         clip-path="url(#clipPath242)" />
      <path
         id="path243"
         d="m 0,0 c -0.001,0.018 -0.062,1.823 -1.431,2.758 -1.165,0.797 -2.971,0.853 -5.277,-0.068 -7.291,-2.913 -11.794,-4.501 -16.998,1.331 -4.061,4.549 -7.541,4.995 -11.462,1.401 0,0 4.278,7.255 11.902,-0.865 5.092,-5.423 9.349,-3.729 16.322,-1.213 2.562,0.923 4.55,0.919 5.911,-0.017 C 0.629,2.186 0,0 0,0"
         style="fill:#231f20;fill-opacity:1;fill-rule:nonzero;stroke:none"
         transform="matrix(0.35277776,0,0,-0.35277776,128.84471,124.35204)"
         clip-path="url(#clipPath244)" />
      <path
         id="path245"
         d="m 0,0 c 1.037,1.081 1.517,2.274 1.424,3.546 -0.119,1.636 -1.187,3.317 -3.007,4.733 -4.987,3.878 -6.194,9.769 -3.587,17.507 1.121,3.327 1.083,5.763 -0.113,7.24 -1.522,1.88 -4.462,1.565 -4.492,1.561 0,0 3.273,1.05 5.032,-1.125 1.355,-1.673 1.432,-4.33 0.231,-7.897 C -7.014,18.136 -5.885,12.505 -1.157,8.827 0.821,7.289 1.898,5.423 2.117,3.596 2.333,1.783 0,0 0,0"
         style="fill:#231f20;fill-opacity:1;fill-rule:nonzero;stroke:none"
         transform="matrix(0.35277776,0,0,-0.35277776,134.10311,138.71267)"
         clip-path="url(#clipPath246)" />
      <path
         id="path247"
         d="m 0,0 c -1.189,0 -4.427,1.617 -4.427,1.617 6.13,-2.073 7.181,-0.463 9.278,2.748 0.265,0.408 0.546,0.837 0.853,1.286 3.041,4.434 6.103,5.915 11.307,5.47 4.77,-0.457 7.462,0.497 8.937,2.374 1.507,1.917 0.66,4.432 0.651,4.457 0,0 1.634,-2.673 -0.105,-4.887 C 24.864,10.991 21.964,9.949 16.949,10.43 11.982,10.855 9.188,9.504 6.276,5.257 5.972,4.814 5.695,4.388 5.432,3.986 3.92,1.67 2.831,0 0,0"
         style="fill:#231f20;fill-opacity:1;fill-rule:nonzero;stroke:none"
         transform="matrix(0.35277776,0,0,-0.35277776,122.36432,148.10866)"
         clip-path="url(#clipPath248)" />
      <path
         id="path249"
         d="m 0,0 c -2.199,1.044 -3.278,3.905 -4.034,8.199 -1.205,6.851 -5.414,8.83 -9.332,8.966 -7.823,0.274 -7.216,7.774 -7.216,7.774 1.043,-6.156 3.846,-6.677 7.359,-7.094 5.615,-0.667 8.637,-2.522 9.871,-9.525 0.72,-4.088 1.717,-6.699 3.663,-7.7 C 2.459,-0.483 4.796,0.78 4.82,0.792 4.82,0.792 2.197,-1.044 0,0"
         style="fill:#231f20;fill-opacity:1;fill-rule:nonzero;stroke:none"
         transform="matrix(0.35277776,0,0,-0.35277776,115.82047,147.29597)"
         clip-path="url(#clipPath250)" />
      <path
         id="path251"
         d="m 0,0 c 0.348,1.828 1.575,3.404 3.647,4.685 6.654,4.113 8.686,7.034 8.052,11.573 -0.498,3.571 -0.843,8.454 1.341,10.434 1.433,1.3 3.259,0.49 3.259,0.49 -1.165,0.083 -2.07,-0.233 -2.752,-0.964 C 11.723,24.263 11.91,19.774 12.387,16.354 13.152,10.874 10.033,7.817 4.012,4.094 2.115,2.922 0.995,1.502 0.683,-0.124 0.208,-2.597 1.779,-4.754 1.794,-4.775 1.794,-4.775 -0.529,-2.777 0,0"
         style="fill:#231f20;fill-opacity:1;fill-rule:nonzero;stroke:none"
         transform="matrix(0.35277776,0,0,-0.35277776,107.29087,133.57069)"
         clip-path="url(#clipPath252)" />
      <path
         id="path253"
         d="m 0,0 c 0.04,0.136 0.945,3.341 -2.676,4.823 -0.925,0.378 -1.691,0.639 -2.321,0.8 -2.501,0.633 -2.815,0.849 -3.425,4.101 -0.221,1.18 -0.78,2.073 -1.662,2.655 -1.517,1.001 -3.61,0.83 -4.289,0.678 0,0 1.959,0.892 4.48,-0.389 1.029,-0.523 1.574,-1.605 1.812,-2.88 0.572,-3.045 1.23,-3.243 3.184,-3.833 0.63,-0.19 1.423,-0.401 2.352,-0.811 C 1.556,3.335 0,0 0,0"
         style="fill:#231f20;fill-opacity:1;fill-rule:nonzero;stroke:none"
         transform="matrix(0.35277776,0,0,-0.35277776,127.91881,132.30073)"
         clip-path="url(#clipPath254)" />
      <path
         id="path255"
         d="m 0,0 c 0.029,-0.002 1.859,-0.033 2.963,1.172 0.679,0.742 0.946,1.801 0.795,3.147 -0.513,4.551 1.533,5.747 2.204,6.14 l 0.076,0.044 c 0.044,0.026 0.102,0.059 0.172,0.098 0.83,0.472 3.358,1.906 3.1,4.305 -0.104,1.048 -0.992,1.476 -1.001,1.48 0,0 1.222,-0.205 1.347,-1.445 C 9.937,12.317 7.26,10.799 6.381,10.3 6.315,10.262 6.259,10.231 6.217,10.206 L 6.137,10.158 C 5.513,9.794 3.615,8.685 4.102,4.358 4.265,2.905 3.968,1.754 3.216,0.936 2.09,-0.293 0,0 0,0"
         style="fill:#231f20;fill-opacity:1;fill-rule:nonzero;stroke:none"
         transform="matrix(0.35277776,0,0,-0.35277776,125.31566,140.59298)"
         clip-path="url(#clipPath256)" />
      <path
         id="path257"
         d="m 0,0 c -1.104,0 -2.324,0.618 -3.637,1.843 -2.973,2.179 -5.346,1.338 -6.762,0.836 -0.195,-0.069 -0.373,-0.133 -0.532,-0.18 -0.148,-0.046 -0.301,-0.105 -0.458,-0.167 -3.177,-1.259 -4.075,2.164 -4.075,2.164 1.505,-2.526 2.929,-2.238 3.948,-1.841 0.166,0.065 0.327,0.127 0.484,0.176 0.154,0.047 0.327,0.108 0.517,0.174 1.482,0.528 3.962,1.407 7.099,-0.895 1.472,-1.372 2.785,-1.944 3.92,-1.712 1.403,0.287 2.059,1.743 2.066,1.758 0,0 -0.414,-1.772 -1.993,-2.097 C 0.389,0.019 0.196,0 0,0"
         style="fill:#231f20;fill-opacity:1;fill-rule:nonzero;stroke:none"
         transform="matrix(0.35277776,0,0,-0.35277776,122.35155,142.20644)"
         clip-path="url(#clipPath258)" />
      <path
         id="path259"
         d="m 0,0 c -0.473,0.936 -0.267,2.136 0.61,3.569 2.71,4.426 0.046,6.397 -0.069,6.478 -0.094,0.08 -2,1.739 -2.068,3.928 -0.057,1.854 1.825,3.029 1.825,3.029 -1.003,-0.924 -1.5,-1.939 -1.477,-3.02 0.041,-2.032 1.914,-3.646 1.933,-3.663 C 0.773,10.31 4.055,7.846 0.905,3.387 0.01,2.12 -0.105,0.978 0.31,0.157 1.008,-1.228 3.237,-1.437 3.26,-1.439 3.26,-1.439 0.785,-1.555 0,0"
         style="fill:#231f20;fill-opacity:1;fill-rule:nonzero;stroke:none"
         transform="matrix(0.35277776,0,0,-0.35277776,114.10865,138.37154)"
         clip-path="url(#clipPath260)" />
      <path
         id="path261"
         d="m 0,0 c 0.879,0.862 2.269,1.171 4.134,0.912 4.608,-0.641 5.375,2.275 5.704,3.518 0.049,0.184 0.087,0.329 0.129,0.427 0.481,1.12 1.2,1.96 2.151,2.153 2.102,0.425 3.759,-1.211 3.759,-1.211 -1.424,0.896 -2.653,1.19 -3.656,0.88 C 11.176,6.353 10.592,5.434 10.286,4.72 10.254,4.645 10.217,4.505 10.174,4.342 9.851,3.123 9.577,-0.113 4.086,0.567 2.335,0.785 1.045,0.536 0.246,-0.245 c -1.053,-1.031 -0.882,-2.624 -0.881,-2.639 0,0 -0.539,1.733 0.635,2.884"
         style="fill:#231f20;fill-opacity:1;fill-rule:nonzero;stroke:none"
         transform="matrix(0.35277776,0,0,-0.35277776,115.43602,129.42612)"
         clip-path="url(#clipPath262)" />
      <path
         id="path263"
         d="m 0,0 c 0,0 -0.771,-1.81 -1.071,-3.21 -0.26,-1.214 -0.576,-3.153 -0.576,-3.153 0,0 -2.633,3.243 -4.471,4.203 0,0 1.403,0.31 2.936,0.715 C -2.001,-1.134 0,0 0,0"
         style="fill:#631d1d;fill-opacity:1;fill-rule:nonzero;stroke:#231f20;stroke-width:0.143;stroke-linecap:butt;stroke-linejoin:miter;stroke-miterlimit:10;stroke-dasharray:none;stroke-opacity:1"
         transform="matrix(0.35277776,0,0,-0.35277776,124.88598,130.70628)"
         clip-path="url(#clipPath264)" />
      <path
         id="path265"
         d="m 0,0 c 0,0 -1.964,0.111 -3.383,-0.08 -1.231,-0.167 -3.16,-0.526 -3.16,-0.526 0,0 2.157,3.575 2.437,5.63 0,0 0.768,-1.215 1.668,-2.52 C -1.745,1.499 0,0 0,0"
         style="fill:#631d1d;fill-opacity:1;fill-rule:nonzero;stroke:#231f20;stroke-width:0.143;stroke-linecap:butt;stroke-linejoin:miter;stroke-miterlimit:10;stroke-dasharray:none;stroke-opacity:1"
         transform="matrix(0.35277776,0,0,-0.35277776,126.09576,137.01419)"
         clip-path="url(#clipPath266)" />
      <path
         id="path267"
         d="m 0,0 c 0,0 1.435,-1.303 2.638,-2.033 1.046,-0.633 2.747,-1.549 2.747,-1.549 0,0 -3.866,-1.426 -5.353,-2.839 0,0 0.165,1.414 0.283,2.979 C 0.406,-2.237 0,0 0,0"
         style="fill:#631d1d;fill-opacity:1;fill-rule:nonzero;stroke:#231f20;stroke-width:0.141;stroke-linecap:butt;stroke-linejoin:miter;stroke-miterlimit:10;stroke-dasharray:none;stroke-opacity:1"
         transform="matrix(0.35277776,0,0,-0.35277776,118.44923,129.86155)"
         clip-path="url(#clipPath268)" />
      <path
         id="path269"
         d="m 0,0 c 0,0 1.708,0.976 2.793,1.909 0.942,0.812 2.364,2.163 2.364,2.163 0,0 0.139,-4.173 1.023,-6.049 0,0 -1.306,0.601 -2.771,1.205 C 2.279,-0.307 0,0 0,0"
         style="fill:#631d1d;fill-opacity:1;fill-rule:nonzero;stroke:#231f20;stroke-width:0.143;stroke-linecap:butt;stroke-linejoin:miter;stroke-miterlimit:10;stroke-dasharray:none;stroke-opacity:1"
         transform="matrix(0.35277776,0,0,-0.35277776,115.57512,135.68196)"
         clip-path="url(#clipPath270)" />
      <path
         id="path271"
         d="m 0,0 c 0,0 -0.386,1.929 -0.928,3.253 -0.472,1.15 -1.306,2.926 -1.306,2.926 0,0 4.004,-1.189 6.064,-0.942 0,0 -0.984,-1.049 -2.019,-2.247 C 1.013,2.064 0,0 0,0"
         style="fill:#631d1d;fill-opacity:1;fill-rule:nonzero;stroke:#231f20;stroke-width:0.143;stroke-linecap:butt;stroke-linejoin:miter;stroke-miterlimit:10;stroke-dasharray:none;stroke-opacity:1"
         transform="matrix(0.35277776,0,0,-0.35277776,120.203,140.28151)"
         clip-path="url(#clipPath272)" />
      <path
         id="path273"
         d="m 0,0 c 0,-5.702 -4.603,-10.325 -10.282,-10.325 -5.68,0 -10.283,4.623 -10.283,10.325 0,5.703 4.603,10.327 10.283,10.327 C -4.603,10.327 0,5.703 0,0"
         style="fill:#e6af19;fill-opacity:1;fill-rule:nonzero;stroke:#231f20;stroke-width:0.694;stroke-linecap:butt;stroke-linejoin:miter;stroke-miterlimit:10;stroke-dasharray:none;stroke-opacity:1"
         transform="matrix(0.35277776,0,0,-0.35277776,124.67131,134.76714)"
         clip-path="url(#clipPath274)" />
    </g>
  </g>
</svg>
