<svg id="Layer_1" data-name="Layer 1" xmlns="http://www.w3.org/2000/svg" viewBox="0 0 523.7 687.86"><path d="M558.59,106.12s-117.25-28.74-252-28.22c-3.06,0-6.11,0-9.15.07s-6.06-.06-9.11-.07C153.37,77.38,36,106.12,36,106.12S51.29,222.67,53.86,292.64c1.49,40.55-7.72,131,4.26,210.71C68.39,571.7,108,632.61,138.05,663.79c66.36,68.85,152.46,98.54,159.16,100.78v.14h0l.21-.07.21.07h0v-.14c6.7-2.24,92.71-31.93,159-100.78,30-31.18,69.6-92.09,79.86-160.45,12-79.7,2.77-170.15,4.25-210.7,2.57-70,17.84-186.52,17.84-186.52Z" transform="translate(-35.45 -77.39)" style="fill:#0098d6;stroke:#000;stroke-miterlimit:10"/><path d="M93.43,304.26a58.58,58.58,0,0,0,18.71,13.32c9.62,4.11,21,4.54,32.17,1.7,6.45-1.63,18.37-6.56,19.7-10.06,3.12-8.22,8.36-25.66,8.36-25.66L199.16,280l22.67,27.36-8.07,24.8s-24.24,2.41-28.06,5c-3.19,2.12-15.45,12.75-16.87,31.89s8.93,37.13,8.93,37.13a54.92,54.92,0,0,1-17-5.53c-12.76-6.38-28.49-17.29-38.69-29.33a123.79,123.79,0,0,1-19.84-30.62c-7.87-17.31-8.79-36.42-8.79-36.42Z" transform="translate(-35.45 -77.39)" style="fill:#fff;stroke:#000;stroke-miterlimit:10;stroke-width:0.75px"/><polygon points="130.12 214.44 134.23 202.36 145.57 201.07 137.78 191.29 121.48 204.61 130.12 214.44 130.12 214.44" style="fill:#fff;stroke:#000;stroke-miterlimit:10;stroke-width:0.75px"/><polygon points="181.29 258.61 168.82 260.17 367.1 497.29 382.83 483.69 184.41 247.56 181.29 258.61 181.29 258.61" style="fill:#fff;stroke:#000;stroke-miterlimit:10;stroke-width:0.75px"/><polygon points="337.05 247.56 340.17 259.18 353.68 260.31 277.1 351 263.88 334.87 337.05 247.56 337.05 247.56" style="fill:#fff;stroke:#000;stroke-miterlimit:10;stroke-width:0.75px"/><path d="M498.92,304.26a58.61,58.61,0,0,1-18.7,13.32c-9.63,4.11-21,4.54-32.18,1.7-6.45-1.63-18.37-6.56-19.7-10.06C425.22,301,420,283.56,420,283.56L393.19,280l-22.67,27.36,8.07,24.8s24.24,2.41,28.07,5c3.18,2.12,15.44,12.75,16.86,31.89s-8.93,37.13-8.93,37.13a54.92,54.92,0,0,0,17-5.53c12.76-6.38,28.49-17.29,38.69-29.33a124.08,124.08,0,0,0,19.85-30.62c7.86-17.31,8.78-36.42,8.78-36.42Z" transform="translate(-35.45 -77.39)" style="fill:#fff;stroke:#000;stroke-miterlimit:10;stroke-width:0.75px"/><polygon points="391.34 214.44 387.23 202.36 375.89 201.07 383.68 191.29 399.98 204.61 391.34 214.44 391.34 214.44" style="fill:#fff;stroke:#000;stroke-miterlimit:10;stroke-width:0.75px"/><path d="M396,203.49s-14.46-2.84-24.38,4.53c-4.1,3-10.91,11.26-13.31,14.22a12,12,0,1,0-12,13.14,11.88,11.88,0,0,0,2.33-.24l-13.32,22.2-32.88-9.64-.56-30.61,14.74,6.24,9.95-6.81-.32-12.47-10.2-8.5-13.61,6.8,6.38-15.16-12.61-15.45-13.61,14.74L289,202.07l-13.7-6.52-9.64,8v13.49l9.64,6.8,14.32-6.66-.29,30.47-33.87,10.21-13.61-22.68-.45-.7a12,12,0,1,0-7.59-11.9c-.94-1.2-8.19-10.34-14.07-14.75-7.09-5.32-24.94-3.83-24.94-3.83l39.11,43.65,4,39.69.21-.13a3.16,3.16,0,0,1-.14-.86c0-7.36,26.21-13.32,58.54-13.32,32.14,0,58.22,5.89,58.52,13.19l1.93-38L396,203.49Zm-41.2,83.85.09.05,0-.65a4.29,4.29,0,0,1-.13.6Z" transform="translate(-35.45 -77.39)" style="fill:#fff;stroke:#000;stroke-miterlimit:10;stroke-width:0.75px"/><polygon points="243.79 359.1 256.55 373.13 153.65 497.29 138.91 483.26 243.79 359.1 243.79 359.1" style="fill:#fff;stroke:#000;stroke-miterlimit:10;stroke-width:0.75px"/><path d="M296.5,302.88c31.68,0,57.37-5.85,57.37-13.06s-25.69-13.06-57.37-13.06-57.37,5.85-57.37,13.06,25.68,13.06,57.37,13.06Z" transform="translate(-35.45 -77.39)" style="fill:#fff;stroke:#000;stroke-miterlimit:10;stroke-width:0.75px"/></svg>