<?xml version="1.0" encoding="UTF-8"?>
<svg id="Layer_1" data-name="Layer 1" xmlns="http://www.w3.org/2000/svg" viewBox="0 0 390.83 532.74">
  <defs>
    <style>
      .cls-1 {
        fill: #ffd457;
      }

      .cls-2 {
        fill: #00853f;
      }
    </style>
  </defs>
  <path class="cls-2" d="m195.41,0H0v143.68c0,264.7,195.41,389.06,195.41,389.06,0,0,195.41-124.36,195.41-389.06V0h-195.41Z"/>
  <path class="cls-1" d="m358.96,25.19c-2.67,2.2-3.17,5.72-4.38,8.77l-16.3,117.67-12.29,93.21c-9.25,28.83-14.97,59.62-40.65,81.17-17.52,11.92-38.7,20.8-60.97,16.06-13.38-6.07-19.95-20.08-19.34-34.43l-1.11-63.4-3.52-149.31-.85-61.32c-.36-3.29-1.21-7.31-4.38-8.77-2.07,2.56-3.29,5.47-3.53,8.77l-1.7,121.56-2.07,157.71c-1.34,9.25-4.75,17.65-11.68,24.47-12.65,9.97-32.98,6.32-46.48.97-40.52-12.41-52.81-57.06-62.79-92.35L36.61,34.56c-.73-3.53-1.82-7.06-4.75-9.38-1.58,2.07-1.82,4.63-2.06,7.3l21.65,214.29c6.58,45.76,25.56,98.81,75.69,113.9,10.34,3.89,22.39,3.77,31.76,10.22,5.35,3.52,5.35,9.25,6.69,14.35.73,16.19-.24,33.1.97,49.04,1.71,3.41,5.84,5.84,6.08,9.98l.25,64.25c6.96,7.09,14.87,13.91,23.23,18.76,2.32-1.54,10.55-7.17,22.41-16.94,1.06-1.08,2.17-2.11,3.15-3.28.61-20.45,0-43.32.61-65.1,1.7-3.04,4.62-5.47,5.6-8.76l.24-50.01,2.68-8.16c2.67-6.08,9-7.06,13.99-9.61,25.55-4.75,49.88-14.49,67.17-37.36,16.8-25.31,25.8-53.79,29.45-84.45l19.6-210.02c-.37-2.92.24-6.46-2.07-8.4Z"/>
</svg>